<?xml version="1.0" encoding="UTF-8" standalone="no"?>
<svg width="925px" height="1025px" viewBox="0 0 925 1025" version="1.1" xmlns="http://www.w3.org/2000/svg" xmlns:xlink="http://www.w3.org/1999/xlink" xmlns:sketch="http://www.bohemiancoding.com/sketch/ns">
    <g id="Page-1" stroke="none" stroke-width="1" fill="none" fill-rule="evenodd" sketch:type="MSPage">
        <g id="Imported-Layers" sketch:type="MSLayerGroup" transform="translate(-1.000000, 0.000000)">
            <path d="M44.577,564.672 L0.956,326 L88.195,326 L44.577,564.672" id="Fill-1" fill="#BCC2BC" sketch:type="MSShapeGroup"></path>
            <path d="M44.5,3.5 C44.11,3.5 43.72,3.34 43.44,3.06 C43.16,2.78 43,2.4 43,2 C43,1.6 43.16,1.22 43.44,0.94 C44,0.38 45,0.38 45.56,0.94 C45.84,1.22 46,1.6 46,2 C46,2.4 45.84,2.78 45.56,3.06 C45.28,3.34 44.89,3.5 44.5,3.5" id="Fill-2" fill="#BCC2BC" sketch:type="MSShapeGroup"></path>
            <path d="M43,299 C43,298.17 43.67,297.5 44.5,297.5 C45.33,297.5 46,298.17 46,299 C46,299.83 45.33,300.5 44.5,300.5 C43.67,300.5 43,299.83 43,299" id="Fill-3" fill="#BCC2BC" sketch:type="MSShapeGroup"></path>
            <path d="M43,307 C43,306.17 43.67,305.5 44.5,305.5 C45.33,305.5 46,306.17 46,307 C46,307.83 45.33,308.5 44.5,308.5 C43.67,308.5 43,307.83 43,307" id="Fill-4" fill="#BCC2BC" sketch:type="MSShapeGroup"></path>
            <path d="M43,315 C43,314.17 43.67,313.5 44.5,313.5 C45.33,313.5 46,314.17 46,315 C46,315.83 45.33,316.5 44.5,316.5 C43.67,316.5 43,315.83 43,315" id="Fill-5" fill="#BCC2BC" sketch:type="MSShapeGroup"></path>
            <path d="M43,291 C43,290.17 43.67,289.5 44.5,289.5 C45.33,289.5 46,290.17 46,291 C46,291.83 45.33,292.5 44.5,292.5 C43.67,292.5 43,291.83 43,291" id="Fill-6" fill="#BCC2BC" sketch:type="MSShapeGroup"></path>
            <path d="M43,283 C43,282.17 43.67,281.5 44.5,281.5 C45.33,281.5 46,282.17 46,283 C46,283.83 45.33,284.5 44.5,284.5 C43.67,284.5 43,283.83 43,283" id="Fill-7" fill="#BCC2BC" sketch:type="MSShapeGroup"></path>
            <path d="M43,275 C43,274.17 43.67,273.5 44.5,273.5 C45.33,273.5 46,274.17 46,275 C46,275.83 45.33,276.5 44.5,276.5 C43.67,276.5 43,275.83 43,275" id="Fill-8" fill="#BCC2BC" sketch:type="MSShapeGroup"></path>
            <path d="M43,267 C43,266.17 43.67,265.5 44.5,265.5 C45.33,265.5 46,266.17 46,267 C46,267.83 45.33,268.5 44.5,268.5 C43.67,268.5 43,267.83 43,267" id="Fill-9" fill="#BCC2BC" sketch:type="MSShapeGroup"></path>
            <path d="M43,259 C43,258.17 43.67,257.5 44.5,257.5 C45.33,257.5 46,258.17 46,259 C46,259.83 45.33,260.5 44.5,260.5 C43.67,260.5 43,259.83 43,259" id="Fill-10" fill="#BCC2BC" sketch:type="MSShapeGroup"></path>
            <path d="M43,251 C43,250.17 43.67,249.5 44.5,249.5 C45.33,249.5 46,250.17 46,251 C46,251.83 45.33,252.5 44.5,252.5 C43.67,252.5 43,251.83 43,251" id="Fill-11" fill="#BCC2BC" sketch:type="MSShapeGroup"></path>
            <path d="M43,243 C43,242.17 43.67,241.5 44.5,241.5 C45.33,241.5 46,242.17 46,243 C46,243.83 45.33,244.5 44.5,244.5 C43.67,244.5 43,243.83 43,243" id="Fill-12" fill="#BCC2BC" sketch:type="MSShapeGroup"></path>
            <path d="M43,235 C43,234.17 43.67,233.5 44.5,233.5 C45.33,233.5 46,234.17 46,235 C46,235.83 45.33,236.5 44.5,236.5 C43.67,236.5 43,235.83 43,235" id="Fill-13" fill="#BCC2BC" sketch:type="MSShapeGroup"></path>
            <path d="M43,227 C43,226.17 43.67,225.5 44.5,225.5 C45.33,225.5 46,226.17 46,227 C46,227.83 45.33,228.5 44.5,228.5 C43.67,228.5 43,227.83 43,227" id="Fill-14" fill="#BCC2BC" sketch:type="MSShapeGroup"></path>
            <path d="M43,219 C43,218.17 43.67,217.5 44.5,217.5 C45.33,217.5 46,218.17 46,219 C46,219.83 45.33,220.5 44.5,220.5 C43.67,220.5 43,219.83 43,219" id="Fill-15" fill="#BCC2BC" sketch:type="MSShapeGroup"></path>
            <path d="M43,211 C43,210.17 43.67,209.5 44.5,209.5 C45.33,209.5 46,210.17 46,211 C46,211.83 45.33,212.5 44.5,212.5 C43.67,212.5 43,211.83 43,211" id="Fill-16" fill="#BCC2BC" sketch:type="MSShapeGroup"></path>
            <path d="M43,203 C43,202.17 43.67,201.5 44.5,201.5 C45.33,201.5 46,202.17 46,203 C46,203.83 45.33,204.5 44.5,204.5 C43.67,204.5 43,203.83 43,203" id="Fill-17" fill="#BCC2BC" sketch:type="MSShapeGroup"></path>
            <path d="M43,195 C43,194.17 43.67,193.5 44.5,193.5 C45.33,193.5 46,194.17 46,195 C46,195.83 45.33,196.5 44.5,196.5 C43.67,196.5 43,195.83 43,195" id="Fill-18" fill="#BCC2BC" sketch:type="MSShapeGroup"></path>
            <path d="M43,187 C43,186.17 43.67,185.5 44.5,185.5 C45.33,185.5 46,186.17 46,187 C46,187.83 45.33,188.5 44.5,188.5 C43.67,188.5 43,187.83 43,187" id="Fill-19" fill="#BCC2BC" sketch:type="MSShapeGroup"></path>
            <path d="M43,179 C43,178.17 43.67,177.5 44.5,177.5 C45.33,177.5 46,178.17 46,179 C46,179.83 45.33,180.5 44.5,180.5 C43.67,180.5 43,179.83 43,179" id="Fill-20" fill="#BCC2BC" sketch:type="MSShapeGroup"></path>
            <path d="M43,171 C43,170.17 43.67,169.5 44.5,169.5 C45.33,169.5 46,170.17 46,171 C46,171.83 45.33,172.5 44.5,172.5 C43.67,172.5 43,171.83 43,171" id="Fill-21" fill="#BCC2BC" sketch:type="MSShapeGroup"></path>
            <path d="M43,163 C43,162.17 43.67,161.5 44.5,161.5 C45.33,161.5 46,162.17 46,163 C46,163.83 45.33,164.5 44.5,164.5 C43.67,164.5 43,163.83 43,163" id="Fill-22" fill="#BCC2BC" sketch:type="MSShapeGroup"></path>
            <path d="M43,155 C43,154.17 43.67,153.5 44.5,153.5 C45.33,153.5 46,154.17 46,155 C46,155.83 45.33,156.5 44.5,156.5 C43.67,156.5 43,155.83 43,155" id="Fill-23" fill="#BCC2BC" sketch:type="MSShapeGroup"></path>
            <path d="M43,147 C43,146.17 43.67,145.5 44.5,145.5 C45.33,145.5 46,146.17 46,147 C46,147.83 45.33,148.5 44.5,148.5 C43.67,148.5 43,147.83 43,147" id="Fill-24" fill="#BCC2BC" sketch:type="MSShapeGroup"></path>
            <path d="M43,139 C43,138.17 43.67,137.5 44.5,137.5 C45.33,137.5 46,138.17 46,139 C46,139.83 45.33,140.5 44.5,140.5 C43.67,140.5 43,139.83 43,139" id="Fill-25" fill="#BCC2BC" sketch:type="MSShapeGroup"></path>
            <path d="M43,131 C43,130.17 43.67,129.5 44.5,129.5 C45.33,129.5 46,130.17 46,131 C46,131.83 45.33,132.5 44.5,132.5 C43.67,132.5 43,131.83 43,131" id="Fill-26" fill="#BCC2BC" sketch:type="MSShapeGroup"></path>
            <path d="M43,123 C43,122.17 43.67,121.5 44.5,121.5 C45.33,121.5 46,122.17 46,123 C46,123.83 45.33,124.5 44.5,124.5 C43.67,124.5 43,123.83 43,123" id="Fill-27" fill="#BCC2BC" sketch:type="MSShapeGroup"></path>
            <path d="M43,115 C43,114.17 43.67,113.5 44.5,113.5 C45.33,113.5 46,114.17 46,115 C46,115.83 45.33,116.5 44.5,116.5 C43.67,116.5 43,115.83 43,115" id="Fill-28" fill="#BCC2BC" sketch:type="MSShapeGroup"></path>
            <path d="M43,107 C43,106.17 43.67,105.5 44.5,105.5 C45.33,105.5 46,106.17 46,107 C46,107.83 45.33,108.5 44.5,108.5 C43.67,108.5 43,107.83 43,107" id="Fill-29" fill="#BCC2BC" sketch:type="MSShapeGroup"></path>
            <path d="M43,99 C43,98.17 43.67,97.5 44.5,97.5 C45.33,97.5 46,98.17 46,99 C46,99.83 45.33,100.5 44.5,100.5 C43.67,100.5 43,99.83 43,99" id="Fill-30" fill="#BCC2BC" sketch:type="MSShapeGroup"></path>
            <path d="M43,91 C43,90.17 43.67,89.5 44.5,89.5 C45.33,89.5 46,90.17 46,91 C46,91.83 45.33,92.5 44.5,92.5 C43.67,92.5 43,91.83 43,91" id="Fill-31" fill="#BCC2BC" sketch:type="MSShapeGroup"></path>
            <path d="M43,83 C43,82.17 43.67,81.5 44.5,81.5 C45.33,81.5 46,82.17 46,83 C46,83.83 45.33,84.5 44.5,84.5 C43.67,84.5 43,83.83 43,83" id="Fill-32" fill="#BCC2BC" sketch:type="MSShapeGroup"></path>
            <path d="M43,75 C43,74.17 43.67,73.5 44.5,73.5 C45.33,73.5 46,74.17 46,75 C46,75.83 45.33,76.5 44.5,76.5 C43.67,76.5 43,75.83 43,75" id="Fill-33" fill="#BCC2BC" sketch:type="MSShapeGroup"></path>
            <path d="M43,67 C43,66.17 43.67,65.5 44.5,65.5 C45.33,65.5 46,66.17 46,67 C46,67.83 45.33,68.5 44.5,68.5 C43.67,68.5 43,67.83 43,67" id="Fill-34" fill="#BCC2BC" sketch:type="MSShapeGroup"></path>
            <path d="M43,59 C43,58.17 43.67,57.5 44.5,57.5 C45.33,57.5 46,58.17 46,59 C46,59.83 45.33,60.5 44.5,60.5 C43.67,60.5 43,59.83 43,59" id="Fill-35" fill="#BCC2BC" sketch:type="MSShapeGroup"></path>
            <path d="M43,51 C43,50.17 43.67,49.5 44.5,49.5 C45.33,49.5 46,50.17 46,51 C46,51.83 45.33,52.5 44.5,52.5 C43.67,52.5 43,51.83 43,51" id="Fill-36" fill="#BCC2BC" sketch:type="MSShapeGroup"></path>
            <path d="M43,43 C43,42.17 43.67,41.5 44.5,41.5 C45.33,41.5 46,42.17 46,43 C46,43.83 45.33,44.5 44.5,44.5 C43.67,44.5 43,43.83 43,43" id="Fill-37" fill="#BCC2BC" sketch:type="MSShapeGroup"></path>
            <path d="M43,35 C43,34.17 43.67,33.5 44.5,33.5 C45.33,33.5 46,34.17 46,35 C46,35.83 45.33,36.5 44.5,36.5 C43.67,36.5 43,35.83 43,35" id="Fill-38" fill="#BCC2BC" sketch:type="MSShapeGroup"></path>
            <path d="M43,27 C43,26.17 43.67,25.5 44.5,25.5 C45.33,25.5 46,26.17 46,27 C46,27.83 45.33,28.5 44.5,28.5 C43.67,28.5 43,27.83 43,27" id="Fill-39" fill="#BCC2BC" sketch:type="MSShapeGroup"></path>
            <path d="M43,19 C43,18.17 43.67,17.5 44.5,17.5 C45.33,17.5 46,18.17 46,19 C46,19.83 45.33,20.5 44.5,20.5 C43.67,20.5 43,19.83 43,19" id="Fill-40" fill="#BCC2BC" sketch:type="MSShapeGroup"></path>
            <path d="M43,11 C43,10.17 43.67,9.5 44.5,9.5 C45.33,9.5 46,10.17 46,11 C46,11.83 45.33,12.5 44.5,12.5 C43.67,12.5 43,11.83 43,11" id="Fill-41" fill="#BCC2BC" sketch:type="MSShapeGroup"></path>
            <path d="M881.577,564.672 L837.956,326 L925.195,326 L881.577,564.672" id="Fill-42" fill="#BCC2BC" sketch:type="MSShapeGroup"></path>
            <path d="M881.5,3.5 C881.109,3.5 880.72,3.34 880.44,3.06 C880.16,2.78 880,2.4 880,2 C880,1.6 880.16,1.22 880.44,0.94 C881,0.38 882,0.38 882.56,0.94 C882.84,1.22 883,1.6 883,2 C883,2.4 882.84,2.78 882.56,3.06 C882.28,3.34 881.89,3.5 881.5,3.5" id="Fill-43" fill="#BCC2BC" sketch:type="MSShapeGroup"></path>
            <path d="M880,299 C880,298.17 880.67,297.5 881.5,297.5 C882.33,297.5 883,298.17 883,299 C883,299.83 882.33,300.5 881.5,300.5 C880.67,300.5 880,299.83 880,299" id="Fill-44" fill="#BCC2BC" sketch:type="MSShapeGroup"></path>
            <path d="M880,307 C880,306.17 880.67,305.5 881.5,305.5 C882.33,305.5 883,306.17 883,307 C883,307.83 882.33,308.5 881.5,308.5 C880.67,308.5 880,307.83 880,307" id="Fill-45" fill="#BCC2BC" sketch:type="MSShapeGroup"></path>
            <path d="M880,315 C880,314.17 880.67,313.5 881.5,313.5 C882.33,313.5 883,314.17 883,315 C883,315.83 882.33,316.5 881.5,316.5 C880.67,316.5 880,315.83 880,315" id="Fill-46" fill="#BCC2BC" sketch:type="MSShapeGroup"></path>
            <path d="M880,291 C880,290.17 880.67,289.5 881.5,289.5 C882.33,289.5 883,290.17 883,291 C883,291.83 882.33,292.5 881.5,292.5 C880.67,292.5 880,291.83 880,291" id="Fill-47" fill="#BCC2BC" sketch:type="MSShapeGroup"></path>
            <path d="M880,283 C880,282.17 880.67,281.5 881.5,281.5 C882.33,281.5 883,282.17 883,283 C883,283.83 882.33,284.5 881.5,284.5 C880.67,284.5 880,283.83 880,283" id="Fill-48" fill="#BCC2BC" sketch:type="MSShapeGroup"></path>
            <path d="M880,275 C880,274.17 880.67,273.5 881.5,273.5 C882.33,273.5 883,274.17 883,275 C883,275.83 882.33,276.5 881.5,276.5 C880.67,276.5 880,275.83 880,275" id="Fill-49" fill="#BCC2BC" sketch:type="MSShapeGroup"></path>
            <path d="M880,267 C880,266.17 880.67,265.5 881.5,265.5 C882.33,265.5 883,266.17 883,267 C883,267.83 882.33,268.5 881.5,268.5 C880.67,268.5 880,267.83 880,267" id="Fill-50" fill="#BCC2BC" sketch:type="MSShapeGroup"></path>
            <path d="M880,259 C880,258.17 880.67,257.5 881.5,257.5 C882.33,257.5 883,258.17 883,259 C883,259.83 882.33,260.5 881.5,260.5 C880.67,260.5 880,259.83 880,259" id="Fill-51" fill="#BCC2BC" sketch:type="MSShapeGroup"></path>
            <path d="M880,251 C880,250.17 880.67,249.5 881.5,249.5 C882.33,249.5 883,250.17 883,251 C883,251.83 882.33,252.5 881.5,252.5 C880.67,252.5 880,251.83 880,251" id="Fill-52" fill="#BCC2BC" sketch:type="MSShapeGroup"></path>
            <path d="M880,243 C880,242.17 880.67,241.5 881.5,241.5 C882.33,241.5 883,242.17 883,243 C883,243.83 882.33,244.5 881.5,244.5 C880.67,244.5 880,243.83 880,243" id="Fill-53" fill="#BCC2BC" sketch:type="MSShapeGroup"></path>
            <path d="M880,235 C880,234.17 880.67,233.5 881.5,233.5 C882.33,233.5 883,234.17 883,235 C883,235.83 882.33,236.5 881.5,236.5 C880.67,236.5 880,235.83 880,235" id="Fill-54" fill="#BCC2BC" sketch:type="MSShapeGroup"></path>
            <path d="M880,227 C880,226.17 880.67,225.5 881.5,225.5 C882.33,225.5 883,226.17 883,227 C883,227.83 882.33,228.5 881.5,228.5 C880.67,228.5 880,227.83 880,227" id="Fill-55" fill="#BCC2BC" sketch:type="MSShapeGroup"></path>
            <path d="M880,219 C880,218.17 880.67,217.5 881.5,217.5 C882.33,217.5 883,218.17 883,219 C883,219.83 882.33,220.5 881.5,220.5 C880.67,220.5 880,219.83 880,219" id="Fill-56" fill="#BCC2BC" sketch:type="MSShapeGroup"></path>
            <path d="M880,211 C880,210.17 880.67,209.5 881.5,209.5 C882.33,209.5 883,210.17 883,211 C883,211.83 882.33,212.5 881.5,212.5 C880.67,212.5 880,211.83 880,211" id="Fill-57" fill="#BCC2BC" sketch:type="MSShapeGroup"></path>
            <path d="M880,203 C880,202.17 880.67,201.5 881.5,201.5 C882.33,201.5 883,202.17 883,203 C883,203.83 882.33,204.5 881.5,204.5 C880.67,204.5 880,203.83 880,203" id="Fill-58" fill="#BCC2BC" sketch:type="MSShapeGroup"></path>
            <path d="M880,195 C880,194.17 880.67,193.5 881.5,193.5 C882.33,193.5 883,194.17 883,195 C883,195.83 882.33,196.5 881.5,196.5 C880.67,196.5 880,195.83 880,195" id="Fill-59" fill="#BCC2BC" sketch:type="MSShapeGroup"></path>
            <path d="M880,187 C880,186.17 880.67,185.5 881.5,185.5 C882.33,185.5 883,186.17 883,187 C883,187.83 882.33,188.5 881.5,188.5 C880.67,188.5 880,187.83 880,187" id="Fill-60" fill="#BCC2BC" sketch:type="MSShapeGroup"></path>
            <path d="M880,179 C880,178.17 880.67,177.5 881.5,177.5 C882.33,177.5 883,178.17 883,179 C883,179.83 882.33,180.5 881.5,180.5 C880.67,180.5 880,179.83 880,179" id="Fill-61" fill="#BCC2BC" sketch:type="MSShapeGroup"></path>
            <path d="M880,171 C880,170.17 880.67,169.5 881.5,169.5 C882.33,169.5 883,170.17 883,171 C883,171.83 882.33,172.5 881.5,172.5 C880.67,172.5 880,171.83 880,171" id="Fill-62" fill="#BCC2BC" sketch:type="MSShapeGroup"></path>
            <path d="M880,163 C880,162.17 880.67,161.5 881.5,161.5 C882.33,161.5 883,162.17 883,163 C883,163.83 882.33,164.5 881.5,164.5 C880.67,164.5 880,163.83 880,163" id="Fill-63" fill="#BCC2BC" sketch:type="MSShapeGroup"></path>
            <path d="M880,155 C880,154.17 880.67,153.5 881.5,153.5 C882.33,153.5 883,154.17 883,155 C883,155.83 882.33,156.5 881.5,156.5 C880.67,156.5 880,155.83 880,155" id="Fill-64" fill="#BCC2BC" sketch:type="MSShapeGroup"></path>
            <path d="M880,147 C880,146.17 880.67,145.5 881.5,145.5 C882.33,145.5 883,146.17 883,147 C883,147.83 882.33,148.5 881.5,148.5 C880.67,148.5 880,147.83 880,147" id="Fill-65" fill="#BCC2BC" sketch:type="MSShapeGroup"></path>
            <path d="M880,139 C880,138.17 880.67,137.5 881.5,137.5 C882.33,137.5 883,138.17 883,139 C883,139.83 882.33,140.5 881.5,140.5 C880.67,140.5 880,139.83 880,139" id="Fill-66" fill="#BCC2BC" sketch:type="MSShapeGroup"></path>
            <path d="M880,131 C880,130.17 880.67,129.5 881.5,129.5 C882.33,129.5 883,130.17 883,131 C883,131.83 882.33,132.5 881.5,132.5 C880.67,132.5 880,131.83 880,131" id="Fill-67" fill="#BCC2BC" sketch:type="MSShapeGroup"></path>
            <path d="M880,123 C880,122.17 880.67,121.5 881.5,121.5 C882.33,121.5 883,122.17 883,123 C883,123.83 882.33,124.5 881.5,124.5 C880.67,124.5 880,123.83 880,123" id="Fill-68" fill="#BCC2BC" sketch:type="MSShapeGroup"></path>
            <path d="M880,115 C880,114.17 880.67,113.5 881.5,113.5 C882.33,113.5 883,114.17 883,115 C883,115.83 882.33,116.5 881.5,116.5 C880.67,116.5 880,115.83 880,115" id="Fill-69" fill="#BCC2BC" sketch:type="MSShapeGroup"></path>
            <path d="M880,107 C880,106.17 880.67,105.5 881.5,105.5 C882.33,105.5 883,106.17 883,107 C883,107.83 882.33,108.5 881.5,108.5 C880.67,108.5 880,107.83 880,107" id="Fill-70" fill="#BCC2BC" sketch:type="MSShapeGroup"></path>
            <path d="M880,99 C880,98.17 880.67,97.5 881.5,97.5 C882.33,97.5 883,98.17 883,99 C883,99.83 882.33,100.5 881.5,100.5 C880.67,100.5 880,99.83 880,99" id="Fill-71" fill="#BCC2BC" sketch:type="MSShapeGroup"></path>
            <path d="M880,91 C880,90.17 880.67,89.5 881.5,89.5 C882.33,89.5 883,90.17 883,91 C883,91.83 882.33,92.5 881.5,92.5 C880.67,92.5 880,91.83 880,91" id="Fill-72" fill="#BCC2BC" sketch:type="MSShapeGroup"></path>
            <path d="M880,83 C880,82.17 880.67,81.5 881.5,81.5 C882.33,81.5 883,82.17 883,83 C883,83.83 882.33,84.5 881.5,84.5 C880.67,84.5 880,83.83 880,83" id="Fill-73" fill="#BCC2BC" sketch:type="MSShapeGroup"></path>
            <path d="M880,75 C880,74.17 880.67,73.5 881.5,73.5 C882.33,73.5 883,74.17 883,75 C883,75.83 882.33,76.5 881.5,76.5 C880.67,76.5 880,75.83 880,75" id="Fill-74" fill="#BCC2BC" sketch:type="MSShapeGroup"></path>
            <path d="M880,67 C880,66.17 880.67,65.5 881.5,65.5 C882.33,65.5 883,66.17 883,67 C883,67.83 882.33,68.5 881.5,68.5 C880.67,68.5 880,67.83 880,67" id="Fill-75" fill="#BCC2BC" sketch:type="MSShapeGroup"></path>
            <path d="M880,59 C880,58.17 880.67,57.5 881.5,57.5 C882.33,57.5 883,58.17 883,59 C883,59.83 882.33,60.5 881.5,60.5 C880.67,60.5 880,59.83 880,59" id="Fill-76" fill="#BCC2BC" sketch:type="MSShapeGroup"></path>
            <path d="M880,51 C880,50.17 880.67,49.5 881.5,49.5 C882.33,49.5 883,50.17 883,51 C883,51.83 882.33,52.5 881.5,52.5 C880.67,52.5 880,51.83 880,51" id="Fill-77" fill="#BCC2BC" sketch:type="MSShapeGroup"></path>
            <path d="M880,43 C880,42.17 880.67,41.5 881.5,41.5 C882.33,41.5 883,42.17 883,43 C883,43.83 882.33,44.5 881.5,44.5 C880.67,44.5 880,43.83 880,43" id="Fill-78" fill="#BCC2BC" sketch:type="MSShapeGroup"></path>
            <path d="M880,35 C880,34.17 880.67,33.5 881.5,33.5 C882.33,33.5 883,34.17 883,35 C883,35.83 882.33,36.5 881.5,36.5 C880.67,36.5 880,35.83 880,35" id="Fill-79" fill="#BCC2BC" sketch:type="MSShapeGroup"></path>
            <path d="M880,27 C880,26.17 880.67,25.5 881.5,25.5 C882.33,25.5 883,26.17 883,27 C883,27.83 882.33,28.5 881.5,28.5 C880.67,28.5 880,27.83 880,27" id="Fill-80" fill="#BCC2BC" sketch:type="MSShapeGroup"></path>
            <path d="M880,19 C880,18.17 880.67,17.5 881.5,17.5 C882.33,17.5 883,18.17 883,19 C883,19.83 882.33,20.5 881.5,20.5 C880.67,20.5 880,19.83 880,19" id="Fill-81" fill="#BCC2BC" sketch:type="MSShapeGroup"></path>
            <path d="M880,11 C880,10.17 880.67,9.5 881.5,9.5 C882.33,9.5 883,10.17 883,11 C883,11.83 882.33,12.5 881.5,12.5 C880.67,12.5 880,11.83 880,11" id="Fill-82" fill="#BCC2BC" sketch:type="MSShapeGroup"></path>
            <path d="M252.5,3.5 C252.1,3.5 251.72,3.34 251.44,3.06 C251.16,2.78 251,2.4 251,2 C251,1.6 251.16,1.22 251.44,0.94 C252,0.38 253,0.38 253.56,0.94 C253.84,1.22 254,1.6 254,2 C254,2.4 253.84,2.78 253.56,3.06 C253.28,3.34 252.89,3.5 252.5,3.5" id="Fill-83" fill="#BCC2BC" sketch:type="MSShapeGroup"></path>
            <path d="M251,531 C251,530.17 251.67,529.5 252.5,529.5 C253.33,529.5 254,530.17 254,531 C254,531.83 253.33,532.5 252.5,532.5 C251.67,532.5 251,531.83 251,531" id="Fill-84" fill="#BCC2BC" sketch:type="MSShapeGroup"></path>
            <path d="M251,523 C251,522.17 251.67,521.5 252.5,521.5 C253.33,521.5 254,522.17 254,523 C254,523.83 253.33,524.5 252.5,524.5 C251.67,524.5 251,523.83 251,523" id="Fill-85" fill="#BCC2BC" sketch:type="MSShapeGroup"></path>
            <path d="M251,515 C251,514.17 251.67,513.5 252.5,513.5 C253.33,513.5 254,514.17 254,515 C254,515.83 253.33,516.5 252.5,516.5 C251.67,516.5 251,515.83 251,515" id="Fill-86" fill="#BCC2BC" sketch:type="MSShapeGroup"></path>
            <path d="M251,507 C251,506.17 251.67,505.5 252.5,505.5 C253.33,505.5 254,506.17 254,507 C254,507.83 253.33,508.5 252.5,508.5 C251.67,508.5 251,507.83 251,507" id="Fill-87" fill="#BCC2BC" sketch:type="MSShapeGroup"></path>
            <path d="M251,499 C251,498.17 251.67,497.5 252.5,497.5 C253.33,497.5 254,498.17 254,499 C254,499.83 253.33,500.5 252.5,500.5 C251.67,500.5 251,499.83 251,499" id="Fill-88" fill="#BCC2BC" sketch:type="MSShapeGroup"></path>
            <path d="M251,491 C251,490.17 251.67,489.5 252.5,489.5 C253.33,489.5 254,490.17 254,491 C254,491.83 253.33,492.5 252.5,492.5 C251.67,492.5 251,491.83 251,491" id="Fill-89" fill="#BCC2BC" sketch:type="MSShapeGroup"></path>
            <path d="M251,483 C251,482.17 251.67,481.5 252.5,481.5 C253.33,481.5 254,482.17 254,483 C254,483.83 253.33,484.5 252.5,484.5 C251.67,484.5 251,483.83 251,483" id="Fill-90" fill="#BCC2BC" sketch:type="MSShapeGroup"></path>
            <path d="M251,475 C251,474.17 251.67,473.5 252.5,473.5 C253.33,473.5 254,474.17 254,475 C254,475.83 253.33,476.5 252.5,476.5 C251.67,476.5 251,475.83 251,475" id="Fill-91" fill="#BCC2BC" sketch:type="MSShapeGroup"></path>
            <path d="M251,467 C251,466.17 251.67,465.5 252.5,465.5 C253.33,465.5 254,466.17 254,467 C254,467.83 253.33,468.5 252.5,468.5 C251.67,468.5 251,467.83 251,467" id="Fill-92" fill="#BCC2BC" sketch:type="MSShapeGroup"></path>
            <path d="M251,459 C251,458.17 251.67,457.5 252.5,457.5 C253.33,457.5 254,458.17 254,459 C254,459.83 253.33,460.5 252.5,460.5 C251.67,460.5 251,459.83 251,459" id="Fill-93" fill="#BCC2BC" sketch:type="MSShapeGroup"></path>
            <path d="M251,451 C251,450.17 251.67,449.5 252.5,449.5 C253.33,449.5 254,450.17 254,451 C254,451.83 253.33,452.5 252.5,452.5 C251.67,452.5 251,451.83 251,451" id="Fill-94" fill="#BCC2BC" sketch:type="MSShapeGroup"></path>
            <path d="M251,443 C251,442.17 251.67,441.5 252.5,441.5 C253.33,441.5 254,442.17 254,443 C254,443.83 253.33,444.5 252.5,444.5 C251.67,444.5 251,443.83 251,443" id="Fill-95" fill="#BCC2BC" sketch:type="MSShapeGroup"></path>
            <path d="M251,435 C251,434.17 251.67,433.5 252.5,433.5 C253.33,433.5 254,434.17 254,435 C254,435.83 253.33,436.5 252.5,436.5 C251.67,436.5 251,435.83 251,435" id="Fill-96" fill="#BCC2BC" sketch:type="MSShapeGroup"></path>
            <path d="M251,427 C251,426.17 251.67,425.5 252.5,425.5 C253.33,425.5 254,426.17 254,427 C254,427.83 253.33,428.5 252.5,428.5 C251.67,428.5 251,427.83 251,427" id="Fill-97" fill="#BCC2BC" sketch:type="MSShapeGroup"></path>
            <path d="M251,419 C251,418.17 251.67,417.5 252.5,417.5 C253.33,417.5 254,418.17 254,419 C254,419.83 253.33,420.5 252.5,420.5 C251.67,420.5 251,419.83 251,419" id="Fill-98" fill="#BCC2BC" sketch:type="MSShapeGroup"></path>
            <path d="M251,411 C251,410.17 251.67,409.5 252.5,409.5 C253.33,409.5 254,410.17 254,411 C254,411.83 253.33,412.5 252.5,412.5 C251.67,412.5 251,411.83 251,411" id="Fill-99" fill="#BCC2BC" sketch:type="MSShapeGroup"></path>
            <path d="M251,403 C251,402.17 251.67,401.5 252.5,401.5 C253.33,401.5 254,402.17 254,403 C254,403.83 253.33,404.5 252.5,404.5 C251.67,404.5 251,403.83 251,403" id="Fill-100" fill="#BCC2BC" sketch:type="MSShapeGroup"></path>
            <path d="M251,395 C251,394.17 251.67,393.5 252.5,393.5 C253.33,393.5 254,394.17 254,395 C254,395.83 253.33,396.5 252.5,396.5 C251.67,396.5 251,395.83 251,395" id="Fill-101" fill="#BCC2BC" sketch:type="MSShapeGroup"></path>
            <path d="M251,387 C251,386.17 251.67,385.5 252.5,385.5 C253.33,385.5 254,386.17 254,387 C254,387.83 253.33,388.5 252.5,388.5 C251.67,388.5 251,387.83 251,387" id="Fill-102" fill="#BCC2BC" sketch:type="MSShapeGroup"></path>
            <path d="M251,379 C251,378.17 251.67,377.5 252.5,377.5 C253.33,377.5 254,378.17 254,379 C254,379.83 253.33,380.5 252.5,380.5 C251.67,380.5 251,379.83 251,379" id="Fill-103" fill="#BCC2BC" sketch:type="MSShapeGroup"></path>
            <path d="M251,371 C251,370.17 251.67,369.5 252.5,369.5 C253.33,369.5 254,370.17 254,371 C254,371.83 253.33,372.5 252.5,372.5 C251.67,372.5 251,371.83 251,371" id="Fill-104" fill="#BCC2BC" sketch:type="MSShapeGroup"></path>
            <path d="M251,363 C251,362.17 251.67,361.5 252.5,361.5 C253.33,361.5 254,362.17 254,363 C254,363.83 253.33,364.5 252.5,364.5 C251.67,364.5 251,363.83 251,363" id="Fill-105" fill="#BCC2BC" sketch:type="MSShapeGroup"></path>
            <path d="M251,355 C251,354.17 251.67,353.5 252.5,353.5 C253.33,353.5 254,354.17 254,355 C254,355.83 253.33,356.5 252.5,356.5 C251.67,356.5 251,355.83 251,355" id="Fill-106" fill="#BCC2BC" sketch:type="MSShapeGroup"></path>
            <path d="M251,347 C251,346.17 251.67,345.5 252.5,345.5 C253.33,345.5 254,346.17 254,347 C254,347.83 253.33,348.5 252.5,348.5 C251.67,348.5 251,347.83 251,347" id="Fill-107" fill="#BCC2BC" sketch:type="MSShapeGroup"></path>
            <path d="M251,339 C251,338.17 251.67,337.5 252.5,337.5 C253.33,337.5 254,338.17 254,339 C254,339.83 253.33,340.5 252.5,340.5 C251.67,340.5 251,339.83 251,339" id="Fill-108" fill="#BCC2BC" sketch:type="MSShapeGroup"></path>
            <path d="M251,331 C251,330.17 251.67,329.5 252.5,329.5 C253.33,329.5 254,330.17 254,331 C254,331.83 253.33,332.5 252.5,332.5 C251.67,332.5 251,331.83 251,331" id="Fill-109" fill="#BCC2BC" sketch:type="MSShapeGroup"></path>
            <path d="M251,323 C251,322.17 251.67,321.5 252.5,321.5 C253.33,321.5 254,322.17 254,323 C254,323.83 253.33,324.5 252.5,324.5 C251.67,324.5 251,323.83 251,323" id="Fill-110" fill="#BCC2BC" sketch:type="MSShapeGroup"></path>
            <path d="M251,315 C251,314.17 251.67,313.5 252.5,313.5 C253.33,313.5 254,314.17 254,315 C254,315.83 253.33,316.5 252.5,316.5 C251.67,316.5 251,315.83 251,315" id="Fill-111" fill="#BCC2BC" sketch:type="MSShapeGroup"></path>
            <path d="M251,307 C251,306.17 251.67,305.5 252.5,305.5 C253.33,305.5 254,306.17 254,307 C254,307.83 253.33,308.5 252.5,308.5 C251.67,308.5 251,307.83 251,307" id="Fill-112" fill="#BCC2BC" sketch:type="MSShapeGroup"></path>
            <path d="M251,299 C251,298.17 251.67,297.5 252.5,297.5 C253.33,297.5 254,298.17 254,299 C254,299.83 253.33,300.5 252.5,300.5 C251.67,300.5 251,299.83 251,299" id="Fill-113" fill="#BCC2BC" sketch:type="MSShapeGroup"></path>
            <path d="M251,291 C251,290.17 251.67,289.5 252.5,289.5 C253.33,289.5 254,290.17 254,291 C254,291.83 253.33,292.5 252.5,292.5 C251.67,292.5 251,291.83 251,291" id="Fill-114" fill="#BCC2BC" sketch:type="MSShapeGroup"></path>
            <path d="M251,283 C251,282.17 251.67,281.5 252.5,281.5 C253.33,281.5 254,282.17 254,283 C254,283.83 253.33,284.5 252.5,284.5 C251.67,284.5 251,283.83 251,283" id="Fill-115" fill="#BCC2BC" sketch:type="MSShapeGroup"></path>
            <path d="M251,275 C251,274.17 251.67,273.5 252.5,273.5 C253.33,273.5 254,274.17 254,275 C254,275.83 253.33,276.5 252.5,276.5 C251.67,276.5 251,275.83 251,275" id="Fill-116" fill="#BCC2BC" sketch:type="MSShapeGroup"></path>
            <path d="M251,267 C251,266.17 251.67,265.5 252.5,265.5 C253.33,265.5 254,266.17 254,267 C254,267.83 253.33,268.5 252.5,268.5 C251.67,268.5 251,267.83 251,267" id="Fill-117" fill="#BCC2BC" sketch:type="MSShapeGroup"></path>
            <path d="M251,259 C251,258.17 251.67,257.5 252.5,257.5 C253.33,257.5 254,258.17 254,259 C254,259.83 253.33,260.5 252.5,260.5 C251.67,260.5 251,259.83 251,259" id="Fill-118" fill="#BCC2BC" sketch:type="MSShapeGroup"></path>
            <path d="M251,251 C251,250.17 251.67,249.5 252.5,249.5 C253.33,249.5 254,250.17 254,251 C254,251.83 253.33,252.5 252.5,252.5 C251.67,252.5 251,251.83 251,251" id="Fill-119" fill="#BCC2BC" sketch:type="MSShapeGroup"></path>
            <path d="M251,243 C251,242.17 251.67,241.5 252.5,241.5 C253.33,241.5 254,242.17 254,243 C254,243.83 253.33,244.5 252.5,244.5 C251.67,244.5 251,243.83 251,243" id="Fill-120" fill="#BCC2BC" sketch:type="MSShapeGroup"></path>
            <path d="M251,235 C251,234.17 251.67,233.5 252.5,233.5 C253.33,233.5 254,234.17 254,235 C254,235.83 253.33,236.5 252.5,236.5 C251.67,236.5 251,235.83 251,235" id="Fill-121" fill="#BCC2BC" sketch:type="MSShapeGroup"></path>
            <path d="M251,227 C251,226.17 251.67,225.5 252.5,225.5 C253.33,225.5 254,226.17 254,227 C254,227.83 253.33,228.5 252.5,228.5 C251.67,228.5 251,227.83 251,227" id="Fill-122" fill="#BCC2BC" sketch:type="MSShapeGroup"></path>
            <path d="M251,219 C251,218.17 251.67,217.5 252.5,217.5 C253.33,217.5 254,218.17 254,219 C254,219.83 253.33,220.5 252.5,220.5 C251.67,220.5 251,219.83 251,219" id="Fill-123" fill="#BCC2BC" sketch:type="MSShapeGroup"></path>
            <path d="M251,211 C251,210.17 251.67,209.5 252.5,209.5 C253.33,209.5 254,210.17 254,211 C254,211.83 253.33,212.5 252.5,212.5 C251.67,212.5 251,211.83 251,211" id="Fill-124" fill="#BCC2BC" sketch:type="MSShapeGroup"></path>
            <path d="M251,203 C251,202.17 251.67,201.5 252.5,201.5 C253.33,201.5 254,202.17 254,203 C254,203.83 253.33,204.5 252.5,204.5 C251.67,204.5 251,203.83 251,203" id="Fill-125" fill="#BCC2BC" sketch:type="MSShapeGroup"></path>
            <path d="M251,195 C251,194.17 251.67,193.5 252.5,193.5 C253.33,193.5 254,194.17 254,195 C254,195.83 253.33,196.5 252.5,196.5 C251.67,196.5 251,195.83 251,195" id="Fill-126" fill="#BCC2BC" sketch:type="MSShapeGroup"></path>
            <path d="M251,187 C251,186.17 251.67,185.5 252.5,185.5 C253.33,185.5 254,186.17 254,187 C254,187.83 253.33,188.5 252.5,188.5 C251.67,188.5 251,187.83 251,187" id="Fill-127" fill="#BCC2BC" sketch:type="MSShapeGroup"></path>
            <path d="M251,179 C251,178.17 251.67,177.5 252.5,177.5 C253.33,177.5 254,178.17 254,179 C254,179.83 253.33,180.5 252.5,180.5 C251.67,180.5 251,179.83 251,179" id="Fill-128" fill="#BCC2BC" sketch:type="MSShapeGroup"></path>
            <path d="M251,171 C251,170.17 251.67,169.5 252.5,169.5 C253.33,169.5 254,170.17 254,171 C254,171.83 253.33,172.5 252.5,172.5 C251.67,172.5 251,171.83 251,171" id="Fill-129" fill="#BCC2BC" sketch:type="MSShapeGroup"></path>
            <path d="M251,163 C251,162.17 251.67,161.5 252.5,161.5 C253.33,161.5 254,162.17 254,163 C254,163.83 253.33,164.5 252.5,164.5 C251.67,164.5 251,163.83 251,163" id="Fill-130" fill="#BCC2BC" sketch:type="MSShapeGroup"></path>
            <path d="M251,155 C251,154.17 251.67,153.5 252.5,153.5 C253.33,153.5 254,154.17 254,155 C254,155.83 253.33,156.5 252.5,156.5 C251.67,156.5 251,155.83 251,155" id="Fill-131" fill="#BCC2BC" sketch:type="MSShapeGroup"></path>
            <path d="M251,147 C251,146.17 251.67,145.5 252.5,145.5 C253.33,145.5 254,146.17 254,147 C254,147.83 253.33,148.5 252.5,148.5 C251.67,148.5 251,147.83 251,147" id="Fill-132" fill="#BCC2BC" sketch:type="MSShapeGroup"></path>
            <path d="M251,139 C251,138.17 251.67,137.5 252.5,137.5 C253.33,137.5 254,138.17 254,139 C254,139.83 253.33,140.5 252.5,140.5 C251.67,140.5 251,139.83 251,139" id="Fill-133" fill="#BCC2BC" sketch:type="MSShapeGroup"></path>
            <path d="M251,131 C251,130.17 251.67,129.5 252.5,129.5 C253.33,129.5 254,130.17 254,131 C254,131.83 253.33,132.5 252.5,132.5 C251.67,132.5 251,131.83 251,131" id="Fill-134" fill="#BCC2BC" sketch:type="MSShapeGroup"></path>
            <path d="M251,123 C251,122.17 251.67,121.5 252.5,121.5 C253.33,121.5 254,122.17 254,123 C254,123.83 253.33,124.5 252.5,124.5 C251.67,124.5 251,123.83 251,123" id="Fill-135" fill="#BCC2BC" sketch:type="MSShapeGroup"></path>
            <path d="M251,115 C251,114.17 251.67,113.5 252.5,113.5 C253.33,113.5 254,114.17 254,115 C254,115.83 253.33,116.5 252.5,116.5 C251.67,116.5 251,115.83 251,115" id="Fill-136" fill="#BCC2BC" sketch:type="MSShapeGroup"></path>
            <path d="M251,107 C251,106.17 251.67,105.5 252.5,105.5 C253.33,105.5 254,106.17 254,107 C254,107.83 253.33,108.5 252.5,108.5 C251.67,108.5 251,107.83 251,107" id="Fill-137" fill="#BCC2BC" sketch:type="MSShapeGroup"></path>
            <path d="M251,99 C251,98.17 251.67,97.5 252.5,97.5 C253.33,97.5 254,98.17 254,99 C254,99.83 253.33,100.5 252.5,100.5 C251.67,100.5 251,99.83 251,99" id="Fill-138" fill="#BCC2BC" sketch:type="MSShapeGroup"></path>
            <path d="M251,91 C251,90.17 251.67,89.5 252.5,89.5 C253.33,89.5 254,90.17 254,91 C254,91.83 253.33,92.5 252.5,92.5 C251.67,92.5 251,91.83 251,91" id="Fill-139" fill="#BCC2BC" sketch:type="MSShapeGroup"></path>
            <path d="M251,83 C251,82.17 251.67,81.5 252.5,81.5 C253.33,81.5 254,82.17 254,83 C254,83.83 253.33,84.5 252.5,84.5 C251.67,84.5 251,83.83 251,83" id="Fill-140" fill="#BCC2BC" sketch:type="MSShapeGroup"></path>
            <path d="M251,75 C251,74.17 251.67,73.5 252.5,73.5 C253.33,73.5 254,74.17 254,75 C254,75.83 253.33,76.5 252.5,76.5 C251.67,76.5 251,75.83 251,75" id="Fill-141" fill="#BCC2BC" sketch:type="MSShapeGroup"></path>
            <path d="M251,67 C251,66.17 251.67,65.5 252.5,65.5 C253.33,65.5 254,66.17 254,67 C254,67.83 253.33,68.5 252.5,68.5 C251.67,68.5 251,67.83 251,67" id="Fill-142" fill="#BCC2BC" sketch:type="MSShapeGroup"></path>
            <path d="M251,59 C251,58.17 251.67,57.5 252.5,57.5 C253.33,57.5 254,58.17 254,59 C254,59.83 253.33,60.5 252.5,60.5 C251.67,60.5 251,59.83 251,59" id="Fill-143" fill="#BCC2BC" sketch:type="MSShapeGroup"></path>
            <path d="M251,51 C251,50.17 251.67,49.5 252.5,49.5 C253.33,49.5 254,50.17 254,51 C254,51.83 253.33,52.5 252.5,52.5 C251.67,52.5 251,51.83 251,51" id="Fill-144" fill="#BCC2BC" sketch:type="MSShapeGroup"></path>
            <path d="M251,43 C251,42.17 251.67,41.5 252.5,41.5 C253.33,41.5 254,42.17 254,43 C254,43.83 253.33,44.5 252.5,44.5 C251.67,44.5 251,43.83 251,43" id="Fill-145" fill="#BCC2BC" sketch:type="MSShapeGroup"></path>
            <path d="M251,35 C251,34.17 251.67,33.5 252.5,33.5 C253.33,33.5 254,34.17 254,35 C254,35.83 253.33,36.5 252.5,36.5 C251.67,36.5 251,35.83 251,35" id="Fill-146" fill="#BCC2BC" sketch:type="MSShapeGroup"></path>
            <path d="M251,27 C251,26.17 251.67,25.5 252.5,25.5 C253.33,25.5 254,26.17 254,27 C254,27.83 253.33,28.5 252.5,28.5 C251.67,28.5 251,27.83 251,27" id="Fill-147" fill="#BCC2BC" sketch:type="MSShapeGroup"></path>
            <path d="M251,19 C251,18.17 251.67,17.5 252.5,17.5 C253.33,17.5 254,18.17 254,19 C254,19.83 253.33,20.5 252.5,20.5 C251.67,20.5 251,19.83 251,19" id="Fill-148" fill="#BCC2BC" sketch:type="MSShapeGroup"></path>
            <path d="M251,11 C251,10.17 251.67,9.5 252.5,9.5 C253.33,9.5 254,10.17 254,11 C254,11.83 253.33,12.5 252.5,12.5 C251.67,12.5 251,11.83 251,11" id="Fill-149" fill="#BCC2BC" sketch:type="MSShapeGroup"></path>
            <path d="M252.5,542.5 C252.11,542.5 251.72,542.34 251.44,542.06 C251.16,541.78 251,541.399 251,541 C251,540.6 251.16,540.22 251.44,539.94 C251.99,539.38 253,539.38 253.56,539.94 C253.84,540.22 254,540.609 254,541 C254,541.39 253.84,541.78 253.56,542.06 C253.28,542.34 252.9,542.5 252.5,542.5" id="Fill-150" fill="#BCC2BC" sketch:type="MSShapeGroup"></path>
            <path d="M470.5,6.5 C470.109,6.5 469.72,6.34 469.44,6.06 C469.16,5.78 469,5.39 469,5 C469,4.61 469.16,4.22 469.44,3.94 C470,3.38 471,3.38 471.56,3.94 C471.84,4.22 472,4.61 472,5 C472,5.39 471.84,5.78 471.56,6.06 C471.28,6.34 470.89,6.5 470.5,6.5" id="Fill-151" fill="#BCC2BC" sketch:type="MSShapeGroup"></path>
            <path d="M469,653 C469,652.17 469.67,651.5 470.5,651.5 C471.33,651.5 472,652.17 472,653 C472,653.83 471.33,654.5 470.5,654.5 C469.67,654.5 469,653.83 469,653" id="Fill-152" fill="#BCC2BC" sketch:type="MSShapeGroup"></path>
            <path d="M469,645 C469,644.17 469.67,643.5 470.5,643.5 C471.33,643.5 472,644.17 472,645 C472,645.83 471.33,646.5 470.5,646.5 C469.67,646.5 469,645.83 469,645" id="Fill-153" fill="#BCC2BC" sketch:type="MSShapeGroup"></path>
            <path d="M469,637 C469,636.17 469.67,635.5 470.5,635.5 C471.33,635.5 472,636.17 472,637 C472,637.83 471.33,638.5 470.5,638.5 C469.67,638.5 469,637.83 469,637" id="Fill-154" fill="#BCC2BC" sketch:type="MSShapeGroup"></path>
            <path d="M469,629 C469,628.17 469.67,627.5 470.5,627.5 C471.33,627.5 472,628.17 472,629 C472,629.83 471.33,630.5 470.5,630.5 C469.67,630.5 469,629.83 469,629" id="Fill-155" fill="#BCC2BC" sketch:type="MSShapeGroup"></path>
            <path d="M469,621 C469,620.17 469.67,619.5 470.5,619.5 C471.33,619.5 472,620.17 472,621 C472,621.83 471.33,622.5 470.5,622.5 C469.67,622.5 469,621.83 469,621" id="Fill-156" fill="#BCC2BC" sketch:type="MSShapeGroup"></path>
            <path d="M469,613 C469,612.17 469.67,611.5 470.5,611.5 C471.33,611.5 472,612.17 472,613 C472,613.83 471.33,614.5 470.5,614.5 C469.67,614.5 469,613.83 469,613" id="Fill-157" fill="#BCC2BC" sketch:type="MSShapeGroup"></path>
            <path d="M469,605 C469,604.17 469.67,603.5 470.5,603.5 C471.33,603.5 472,604.17 472,605 C472,605.83 471.33,606.5 470.5,606.5 C469.67,606.5 469,605.83 469,605" id="Fill-158" fill="#BCC2BC" sketch:type="MSShapeGroup"></path>
            <path d="M469,597 C469,596.17 469.67,595.5 470.5,595.5 C471.33,595.5 472,596.17 472,597 C472,597.83 471.33,598.5 470.5,598.5 C469.67,598.5 469,597.83 469,597" id="Fill-159" fill="#BCC2BC" sketch:type="MSShapeGroup"></path>
            <path d="M469,589 C469,588.17 469.67,587.5 470.5,587.5 C471.33,587.5 472,588.17 472,589 C472,589.83 471.33,590.5 470.5,590.5 C469.67,590.5 469,589.83 469,589" id="Fill-160" fill="#BCC2BC" sketch:type="MSShapeGroup"></path>
            <path d="M469,581 C469,580.17 469.67,579.5 470.5,579.5 C471.33,579.5 472,580.17 472,581 C472,581.83 471.33,582.5 470.5,582.5 C469.67,582.5 469,581.83 469,581" id="Fill-161" fill="#BCC2BC" sketch:type="MSShapeGroup"></path>
            <path d="M469,573 C469,572.17 469.67,571.5 470.5,571.5 C471.33,571.5 472,572.17 472,573 C472,573.83 471.33,574.5 470.5,574.5 C469.67,574.5 469,573.83 469,573" id="Fill-162" fill="#BCC2BC" sketch:type="MSShapeGroup"></path>
            <path d="M469,565 C469,564.17 469.67,563.5 470.5,563.5 C471.33,563.5 472,564.17 472,565 C472,565.83 471.33,566.5 470.5,566.5 C469.67,566.5 469,565.83 469,565" id="Fill-163" fill="#BCC2BC" sketch:type="MSShapeGroup"></path>
            <path d="M469,557 C469,556.17 469.67,555.5 470.5,555.5 C471.33,555.5 472,556.17 472,557 C472,557.83 471.33,558.5 470.5,558.5 C469.67,558.5 469,557.83 469,557" id="Fill-164" fill="#BCC2BC" sketch:type="MSShapeGroup"></path>
            <path d="M469,549 C469,548.17 469.67,547.5 470.5,547.5 C471.33,547.5 472,548.17 472,549 C472,549.83 471.33,550.5 470.5,550.5 C469.67,550.5 469,549.83 469,549" id="Fill-165" fill="#BCC2BC" sketch:type="MSShapeGroup"></path>
            <path d="M469,541 C469,540.17 469.67,539.5 470.5,539.5 C471.33,539.5 472,540.17 472,541 C472,541.83 471.33,542.5 470.5,542.5 C469.67,542.5 469,541.83 469,541" id="Fill-166" fill="#BCC2BC" sketch:type="MSShapeGroup"></path>
            <path d="M469,533 C469,532.17 469.67,531.5 470.5,531.5 C471.33,531.5 472,532.17 472,533 C472,533.83 471.33,534.5 470.5,534.5 C469.67,534.5 469,533.83 469,533" id="Fill-167" fill="#BCC2BC" sketch:type="MSShapeGroup"></path>
            <path d="M469,525 C469,524.17 469.67,523.5 470.5,523.5 C471.33,523.5 472,524.17 472,525 C472,525.83 471.33,526.5 470.5,526.5 C469.67,526.5 469,525.83 469,525" id="Fill-168" fill="#BCC2BC" sketch:type="MSShapeGroup"></path>
            <path d="M469,517 C469,516.17 469.67,515.5 470.5,515.5 C471.33,515.5 472,516.17 472,517 C472,517.83 471.33,518.5 470.5,518.5 C469.67,518.5 469,517.83 469,517" id="Fill-169" fill="#BCC2BC" sketch:type="MSShapeGroup"></path>
            <path d="M469,509 C469,508.17 469.67,507.5 470.5,507.5 C471.33,507.5 472,508.17 472,509 C472,509.83 471.33,510.5 470.5,510.5 C469.67,510.5 469,509.83 469,509" id="Fill-170" fill="#BCC2BC" sketch:type="MSShapeGroup"></path>
            <path d="M469,501 C469,500.17 469.67,499.5 470.5,499.5 C471.33,499.5 472,500.17 472,501 C472,501.83 471.33,502.5 470.5,502.5 C469.67,502.5 469,501.83 469,501" id="Fill-171" fill="#BCC2BC" sketch:type="MSShapeGroup"></path>
            <path d="M469,493 C469,492.17 469.67,491.5 470.5,491.5 C471.33,491.5 472,492.17 472,493 C472,493.83 471.33,494.5 470.5,494.5 C469.67,494.5 469,493.83 469,493" id="Fill-172" fill="#BCC2BC" sketch:type="MSShapeGroup"></path>
            <path d="M469,485 C469,484.17 469.67,483.5 470.5,483.5 C471.33,483.5 472,484.17 472,485 C472,485.83 471.33,486.5 470.5,486.5 C469.67,486.5 469,485.83 469,485" id="Fill-173" fill="#BCC2BC" sketch:type="MSShapeGroup"></path>
            <path d="M469,477 C469,476.17 469.67,475.5 470.5,475.5 C471.33,475.5 472,476.17 472,477 C472,477.83 471.33,478.5 470.5,478.5 C469.67,478.5 469,477.83 469,477" id="Fill-174" fill="#BCC2BC" sketch:type="MSShapeGroup"></path>
            <path d="M469,469 C469,468.17 469.67,467.5 470.5,467.5 C471.33,467.5 472,468.17 472,469 C472,469.83 471.33,470.5 470.5,470.5 C469.67,470.5 469,469.83 469,469" id="Fill-175" fill="#BCC2BC" sketch:type="MSShapeGroup"></path>
            <path d="M469,461 C469,460.17 469.67,459.5 470.5,459.5 C471.33,459.5 472,460.17 472,461 C472,461.83 471.33,462.5 470.5,462.5 C469.67,462.5 469,461.83 469,461" id="Fill-176" fill="#BCC2BC" sketch:type="MSShapeGroup"></path>
            <path d="M469,453 C469,452.17 469.67,451.5 470.5,451.5 C471.33,451.5 472,452.17 472,453 C472,453.83 471.33,454.5 470.5,454.5 C469.67,454.5 469,453.83 469,453" id="Fill-177" fill="#BCC2BC" sketch:type="MSShapeGroup"></path>
            <path d="M469,445 C469,444.17 469.67,443.5 470.5,443.5 C471.33,443.5 472,444.17 472,445 C472,445.83 471.33,446.5 470.5,446.5 C469.67,446.5 469,445.83 469,445" id="Fill-178" fill="#BCC2BC" sketch:type="MSShapeGroup"></path>
            <path d="M469,437 C469,436.17 469.67,435.5 470.5,435.5 C471.33,435.5 472,436.17 472,437 C472,437.83 471.33,438.5 470.5,438.5 C469.67,438.5 469,437.83 469,437" id="Fill-179" fill="#BCC2BC" sketch:type="MSShapeGroup"></path>
            <path d="M469,429 C469,428.17 469.67,427.5 470.5,427.5 C471.33,427.5 472,428.17 472,429 C472,429.83 471.33,430.5 470.5,430.5 C469.67,430.5 469,429.83 469,429" id="Fill-180" fill="#BCC2BC" sketch:type="MSShapeGroup"></path>
            <path d="M469,421 C469,420.17 469.67,419.5 470.5,419.5 C471.33,419.5 472,420.17 472,421 C472,421.83 471.33,422.5 470.5,422.5 C469.67,422.5 469,421.83 469,421" id="Fill-181" fill="#BCC2BC" sketch:type="MSShapeGroup"></path>
            <path d="M469,413 C469,412.17 469.67,411.5 470.5,411.5 C471.33,411.5 472,412.17 472,413 C472,413.83 471.33,414.5 470.5,414.5 C469.67,414.5 469,413.83 469,413" id="Fill-182" fill="#BCC2BC" sketch:type="MSShapeGroup"></path>
            <path d="M469,405 C469,404.17 469.67,403.5 470.5,403.5 C471.33,403.5 472,404.17 472,405 C472,405.83 471.33,406.5 470.5,406.5 C469.67,406.5 469,405.83 469,405" id="Fill-183" fill="#BCC2BC" sketch:type="MSShapeGroup"></path>
            <path d="M469,397 C469,396.17 469.67,395.5 470.5,395.5 C471.33,395.5 472,396.17 472,397 C472,397.83 471.33,398.5 470.5,398.5 C469.67,398.5 469,397.83 469,397" id="Fill-184" fill="#BCC2BC" sketch:type="MSShapeGroup"></path>
            <path d="M469,389 C469,388.17 469.67,387.5 470.5,387.5 C471.33,387.5 472,388.17 472,389 C472,389.83 471.33,390.5 470.5,390.5 C469.67,390.5 469,389.83 469,389" id="Fill-185" fill="#BCC2BC" sketch:type="MSShapeGroup"></path>
            <path d="M469,381 C469,380.17 469.67,379.5 470.5,379.5 C471.33,379.5 472,380.17 472,381 C472,381.83 471.33,382.5 470.5,382.5 C469.67,382.5 469,381.83 469,381" id="Fill-186" fill="#BCC2BC" sketch:type="MSShapeGroup"></path>
            <path d="M469,373 C469,372.17 469.67,371.5 470.5,371.5 C471.33,371.5 472,372.17 472,373 C472,373.83 471.33,374.5 470.5,374.5 C469.67,374.5 469,373.83 469,373" id="Fill-187" fill="#BCC2BC" sketch:type="MSShapeGroup"></path>
            <path d="M469,365 C469,364.17 469.67,363.5 470.5,363.5 C471.33,363.5 472,364.17 472,365 C472,365.83 471.33,366.5 470.5,366.5 C469.67,366.5 469,365.83 469,365" id="Fill-188" fill="#BCC2BC" sketch:type="MSShapeGroup"></path>
            <path d="M469,357 C469,356.17 469.67,355.5 470.5,355.5 C471.33,355.5 472,356.17 472,357 C472,357.83 471.33,358.5 470.5,358.5 C469.67,358.5 469,357.83 469,357" id="Fill-189" fill="#BCC2BC" sketch:type="MSShapeGroup"></path>
            <path d="M469,349 C469,348.17 469.67,347.5 470.5,347.5 C471.33,347.5 472,348.17 472,349 C472,349.83 471.33,350.5 470.5,350.5 C469.67,350.5 469,349.83 469,349" id="Fill-190" fill="#BCC2BC" sketch:type="MSShapeGroup"></path>
            <path d="M469,341 C469,340.17 469.67,339.5 470.5,339.5 C471.33,339.5 472,340.17 472,341 C472,341.83 471.33,342.5 470.5,342.5 C469.67,342.5 469,341.83 469,341" id="Fill-191" fill="#BCC2BC" sketch:type="MSShapeGroup"></path>
            <path d="M469,333 C469,332.17 469.67,331.5 470.5,331.5 C471.33,331.5 472,332.17 472,333 C472,333.83 471.33,334.5 470.5,334.5 C469.67,334.5 469,333.83 469,333" id="Fill-192" fill="#BCC2BC" sketch:type="MSShapeGroup"></path>
            <path d="M469,325 C469,324.17 469.67,323.5 470.5,323.5 C471.33,323.5 472,324.17 472,325 C472,325.83 471.33,326.5 470.5,326.5 C469.67,326.5 469,325.83 469,325" id="Fill-193" fill="#BCC2BC" sketch:type="MSShapeGroup"></path>
            <path d="M469,317 C469,316.17 469.67,315.5 470.5,315.5 C471.33,315.5 472,316.17 472,317 C472,317.83 471.33,318.5 470.5,318.5 C469.67,318.5 469,317.83 469,317" id="Fill-194" fill="#BCC2BC" sketch:type="MSShapeGroup"></path>
            <path d="M469,309 C469,308.17 469.67,307.5 470.5,307.5 C471.33,307.5 472,308.17 472,309 C472,309.83 471.33,310.5 470.5,310.5 C469.67,310.5 469,309.83 469,309" id="Fill-195" fill="#BCC2BC" sketch:type="MSShapeGroup"></path>
            <path d="M469,301 C469,300.17 469.67,299.5 470.5,299.5 C471.33,299.5 472,300.17 472,301 C472,301.83 471.33,302.5 470.5,302.5 C469.67,302.5 469,301.83 469,301" id="Fill-196" fill="#BCC2BC" sketch:type="MSShapeGroup"></path>
            <path d="M469,293 C469,292.17 469.67,291.5 470.5,291.5 C471.33,291.5 472,292.17 472,293 C472,293.83 471.33,294.5 470.5,294.5 C469.67,294.5 469,293.83 469,293" id="Fill-197" fill="#BCC2BC" sketch:type="MSShapeGroup"></path>
            <path d="M469,285 C469,284.17 469.67,283.5 470.5,283.5 C471.33,283.5 472,284.17 472,285 C472,285.83 471.33,286.5 470.5,286.5 C469.67,286.5 469,285.83 469,285" id="Fill-198" fill="#BCC2BC" sketch:type="MSShapeGroup"></path>
            <path d="M469,277 C469,276.17 469.67,275.5 470.5,275.5 C471.33,275.5 472,276.17 472,277 C472,277.83 471.33,278.5 470.5,278.5 C469.67,278.5 469,277.83 469,277" id="Fill-199" fill="#BCC2BC" sketch:type="MSShapeGroup"></path>
            <path d="M469,269 C469,268.17 469.67,267.5 470.5,267.5 C471.33,267.5 472,268.17 472,269 C472,269.83 471.33,270.5 470.5,270.5 C469.67,270.5 469,269.83 469,269" id="Fill-200" fill="#BCC2BC" sketch:type="MSShapeGroup"></path>
            <path d="M469,261 C469,260.17 469.67,259.5 470.5,259.5 C471.33,259.5 472,260.17 472,261 C472,261.83 471.33,262.5 470.5,262.5 C469.67,262.5 469,261.83 469,261" id="Fill-201" fill="#BCC2BC" sketch:type="MSShapeGroup"></path>
            <path d="M469,253 C469,252.17 469.67,251.5 470.5,251.5 C471.33,251.5 472,252.17 472,253 C472,253.83 471.33,254.5 470.5,254.5 C469.67,254.5 469,253.83 469,253" id="Fill-202" fill="#BCC2BC" sketch:type="MSShapeGroup"></path>
            <path d="M469,245 C469,244.17 469.67,243.5 470.5,243.5 C471.33,243.5 472,244.17 472,245 C472,245.83 471.33,246.5 470.5,246.5 C469.67,246.5 469,245.83 469,245" id="Fill-203" fill="#BCC2BC" sketch:type="MSShapeGroup"></path>
            <path d="M469,237 C469,236.17 469.67,235.5 470.5,235.5 C471.33,235.5 472,236.17 472,237 C472,237.83 471.33,238.5 470.5,238.5 C469.67,238.5 469,237.83 469,237" id="Fill-204" fill="#BCC2BC" sketch:type="MSShapeGroup"></path>
            <path d="M469,229 C469,228.17 469.67,227.5 470.5,227.5 C471.33,227.5 472,228.17 472,229 C472,229.83 471.33,230.5 470.5,230.5 C469.67,230.5 469,229.83 469,229" id="Fill-205" fill="#BCC2BC" sketch:type="MSShapeGroup"></path>
            <path d="M469,221 C469,220.17 469.67,219.5 470.5,219.5 C471.33,219.5 472,220.17 472,221 C472,221.83 471.33,222.5 470.5,222.5 C469.67,222.5 469,221.83 469,221" id="Fill-206" fill="#BCC2BC" sketch:type="MSShapeGroup"></path>
            <path d="M469,213 C469,212.17 469.67,211.5 470.5,211.5 C471.33,211.5 472,212.17 472,213 C472,213.83 471.33,214.5 470.5,214.5 C469.67,214.5 469,213.83 469,213" id="Fill-207" fill="#BCC2BC" sketch:type="MSShapeGroup"></path>
            <path d="M469,205 C469,204.17 469.67,203.5 470.5,203.5 C471.33,203.5 472,204.17 472,205 C472,205.83 471.33,206.5 470.5,206.5 C469.67,206.5 469,205.83 469,205" id="Fill-208" fill="#BCC2BC" sketch:type="MSShapeGroup"></path>
            <path d="M469,197 C469,196.17 469.67,195.5 470.5,195.5 C471.33,195.5 472,196.17 472,197 C472,197.83 471.33,198.5 470.5,198.5 C469.67,198.5 469,197.83 469,197" id="Fill-209" fill="#BCC2BC" sketch:type="MSShapeGroup"></path>
            <path d="M469,189 C469,188.17 469.67,187.5 470.5,187.5 C471.33,187.5 472,188.17 472,189 C472,189.83 471.33,190.5 470.5,190.5 C469.67,190.5 469,189.83 469,189" id="Fill-210" fill="#BCC2BC" sketch:type="MSShapeGroup"></path>
            <path d="M469,181 C469,180.17 469.67,179.5 470.5,179.5 C471.33,179.5 472,180.17 472,181 C472,181.83 471.33,182.5 470.5,182.5 C469.67,182.5 469,181.83 469,181" id="Fill-211" fill="#BCC2BC" sketch:type="MSShapeGroup"></path>
            <path d="M469,173 C469,172.17 469.67,171.5 470.5,171.5 C471.33,171.5 472,172.17 472,173 C472,173.83 471.33,174.5 470.5,174.5 C469.67,174.5 469,173.83 469,173" id="Fill-212" fill="#BCC2BC" sketch:type="MSShapeGroup"></path>
            <path d="M469,165 C469,164.17 469.67,163.5 470.5,163.5 C471.33,163.5 472,164.17 472,165 C472,165.83 471.33,166.5 470.5,166.5 C469.67,166.5 469,165.83 469,165" id="Fill-213" fill="#BCC2BC" sketch:type="MSShapeGroup"></path>
            <path d="M469,157 C469,156.17 469.67,155.5 470.5,155.5 C471.33,155.5 472,156.17 472,157 C472,157.83 471.33,158.5 470.5,158.5 C469.67,158.5 469,157.83 469,157" id="Fill-214" fill="#BCC2BC" sketch:type="MSShapeGroup"></path>
            <path d="M469,149 C469,148.17 469.67,147.5 470.5,147.5 C471.33,147.5 472,148.17 472,149 C472,149.83 471.33,150.5 470.5,150.5 C469.67,150.5 469,149.83 469,149" id="Fill-215" fill="#BCC2BC" sketch:type="MSShapeGroup"></path>
            <path d="M469,141 C469,140.17 469.67,139.5 470.5,139.5 C471.33,139.5 472,140.17 472,141 C472,141.83 471.33,142.5 470.5,142.5 C469.67,142.5 469,141.83 469,141" id="Fill-216" fill="#BCC2BC" sketch:type="MSShapeGroup"></path>
            <path d="M469,133 C469,132.17 469.67,131.5 470.5,131.5 C471.33,131.5 472,132.17 472,133 C472,133.83 471.33,134.5 470.5,134.5 C469.67,134.5 469,133.83 469,133" id="Fill-217" fill="#BCC2BC" sketch:type="MSShapeGroup"></path>
            <path d="M469,125 C469,124.17 469.67,123.5 470.5,123.5 C471.33,123.5 472,124.17 472,125 C472,125.83 471.33,126.5 470.5,126.5 C469.67,126.5 469,125.83 469,125" id="Fill-218" fill="#BCC2BC" sketch:type="MSShapeGroup"></path>
            <path d="M469,117 C469,116.17 469.67,115.5 470.5,115.5 C471.33,115.5 472,116.17 472,117 C472,117.83 471.33,118.5 470.5,118.5 C469.67,118.5 469,117.83 469,117" id="Fill-219" fill="#BCC2BC" sketch:type="MSShapeGroup"></path>
            <path d="M469,109 C469,108.17 469.67,107.5 470.5,107.5 C471.33,107.5 472,108.17 472,109 C472,109.83 471.33,110.5 470.5,110.5 C469.67,110.5 469,109.83 469,109" id="Fill-220" fill="#BCC2BC" sketch:type="MSShapeGroup"></path>
            <path d="M469,101 C469,100.17 469.67,99.5 470.5,99.5 C471.33,99.5 472,100.17 472,101 C472,101.83 471.33,102.5 470.5,102.5 C469.67,102.5 469,101.83 469,101" id="Fill-221" fill="#BCC2BC" sketch:type="MSShapeGroup"></path>
            <path d="M469,93 C469,92.17 469.67,91.5 470.5,91.5 C471.33,91.5 472,92.17 472,93 C472,93.83 471.33,94.5 470.5,94.5 C469.67,94.5 469,93.83 469,93" id="Fill-222" fill="#BCC2BC" sketch:type="MSShapeGroup"></path>
            <path d="M469,85 C469,84.17 469.67,83.5 470.5,83.5 C471.33,83.5 472,84.17 472,85 C472,85.83 471.33,86.5 470.5,86.5 C469.67,86.5 469,85.83 469,85" id="Fill-223" fill="#BCC2BC" sketch:type="MSShapeGroup"></path>
            <path d="M469,77 C469,76.17 469.67,75.5 470.5,75.5 C471.33,75.5 472,76.17 472,77 C472,77.83 471.33,78.5 470.5,78.5 C469.67,78.5 469,77.83 469,77" id="Fill-224" fill="#BCC2BC" sketch:type="MSShapeGroup"></path>
            <path d="M469,69 C469,68.17 469.67,67.5 470.5,67.5 C471.33,67.5 472,68.17 472,69 C472,69.83 471.33,70.5 470.5,70.5 C469.67,70.5 469,69.83 469,69" id="Fill-225" fill="#BCC2BC" sketch:type="MSShapeGroup"></path>
            <path d="M469,61 C469,60.17 469.67,59.5 470.5,59.5 C471.33,59.5 472,60.17 472,61 C472,61.83 471.33,62.5 470.5,62.5 C469.67,62.5 469,61.83 469,61" id="Fill-226" fill="#BCC2BC" sketch:type="MSShapeGroup"></path>
            <path d="M469,53 C469,52.17 469.67,51.5 470.5,51.5 C471.33,51.5 472,52.17 472,53 C472,53.83 471.33,54.5 470.5,54.5 C469.67,54.5 469,53.83 469,53" id="Fill-227" fill="#BCC2BC" sketch:type="MSShapeGroup"></path>
            <path d="M469,45 C469,44.17 469.67,43.5 470.5,43.5 C471.33,43.5 472,44.17 472,45 C472,45.83 471.33,46.5 470.5,46.5 C469.67,46.5 469,45.83 469,45" id="Fill-228" fill="#BCC2BC" sketch:type="MSShapeGroup"></path>
            <path d="M469,37 C469,36.17 469.67,35.5 470.5,35.5 C471.33,35.5 472,36.17 472,37 C472,37.83 471.33,38.5 470.5,38.5 C469.67,38.5 469,37.83 469,37" id="Fill-229" fill="#BCC2BC" sketch:type="MSShapeGroup"></path>
            <path d="M469,29 C469,28.17 469.67,27.5 470.5,27.5 C471.33,27.5 472,28.17 472,29 C472,29.83 471.33,30.5 470.5,30.5 C469.67,30.5 469,29.83 469,29" id="Fill-230" fill="#BCC2BC" sketch:type="MSShapeGroup"></path>
            <path d="M469,21 C469,20.17 469.67,19.5 470.5,19.5 C471.33,19.5 472,20.17 472,21 C472,21.83 471.33,22.5 470.5,22.5 C469.67,22.5 469,21.83 469,21" id="Fill-231" fill="#BCC2BC" sketch:type="MSShapeGroup"></path>
            <path d="M469,13 C469,12.17 469.67,11.5 470.5,11.5 C471.33,11.5 472,12.17 472,13 C472,13.83 471.33,14.5 470.5,14.5 C469.67,14.5 469,13.83 469,13" id="Fill-232" fill="#BCC2BC" sketch:type="MSShapeGroup"></path>
            <path d="M470.5,663.5 C470.1,663.5 469.72,663.34 469.44,663.06 C469.16,662.78 469,662.39 469,662 C469,661.609 469.16,661.22 469.44,660.94 C470,660.38 470.99,660.38 471.56,660.94 C471.84,661.22 472,661.609 472,662 C472,662.39 471.84,662.78 471.56,663.06 C471.28,663.34 470.89,663.5 470.5,663.5" id="Fill-233" fill="#BCC2BC" sketch:type="MSShapeGroup"></path>
            <path d="M672.5,6.5 C672.109,6.5 671.72,6.34 671.44,6.06 C671.16,5.78 671,5.4 671,5 C671,4.6 671.16,4.22 671.44,3.94 C672,3.38 673,3.38 673.56,3.94 C673.84,4.22 674,4.6 674,5 C674,5.4 673.84,5.78 673.56,6.06 C673.28,6.34 672.89,6.5 672.5,6.5" id="Fill-234" fill="#BCC2BC" sketch:type="MSShapeGroup"></path>
            <path d="M671,533 C671,532.17 671.67,531.5 672.5,531.5 C673.33,531.5 674,532.17 674,533 C674,533.83 673.33,534.5 672.5,534.5 C671.67,534.5 671,533.83 671,533" id="Fill-235" fill="#BCC2BC" sketch:type="MSShapeGroup"></path>
            <path d="M671,525 C671,524.17 671.67,523.5 672.5,523.5 C673.33,523.5 674,524.17 674,525 C674,525.83 673.33,526.5 672.5,526.5 C671.67,526.5 671,525.83 671,525" id="Fill-236" fill="#BCC2BC" sketch:type="MSShapeGroup"></path>
            <path d="M671,517 C671,516.17 671.67,515.5 672.5,515.5 C673.33,515.5 674,516.17 674,517 C674,517.83 673.33,518.5 672.5,518.5 C671.67,518.5 671,517.83 671,517" id="Fill-237" fill="#BCC2BC" sketch:type="MSShapeGroup"></path>
            <path d="M671,509 C671,508.17 671.67,507.5 672.5,507.5 C673.33,507.5 674,508.17 674,509 C674,509.83 673.33,510.5 672.5,510.5 C671.67,510.5 671,509.83 671,509" id="Fill-238" fill="#BCC2BC" sketch:type="MSShapeGroup"></path>
            <path d="M671,501 C671,500.17 671.67,499.5 672.5,499.5 C673.33,499.5 674,500.17 674,501 C674,501.83 673.33,502.5 672.5,502.5 C671.67,502.5 671,501.83 671,501" id="Fill-239" fill="#BCC2BC" sketch:type="MSShapeGroup"></path>
            <path d="M671,493 C671,492.17 671.67,491.5 672.5,491.5 C673.33,491.5 674,492.17 674,493 C674,493.83 673.33,494.5 672.5,494.5 C671.67,494.5 671,493.83 671,493" id="Fill-240" fill="#BCC2BC" sketch:type="MSShapeGroup"></path>
            <path d="M671,485 C671,484.17 671.67,483.5 672.5,483.5 C673.33,483.5 674,484.17 674,485 C674,485.83 673.33,486.5 672.5,486.5 C671.67,486.5 671,485.83 671,485" id="Fill-241" fill="#BCC2BC" sketch:type="MSShapeGroup"></path>
            <path d="M671,477 C671,476.17 671.67,475.5 672.5,475.5 C673.33,475.5 674,476.17 674,477 C674,477.83 673.33,478.5 672.5,478.5 C671.67,478.5 671,477.83 671,477" id="Fill-242" fill="#BCC2BC" sketch:type="MSShapeGroup"></path>
            <path d="M671,469 C671,468.17 671.67,467.5 672.5,467.5 C673.33,467.5 674,468.17 674,469 C674,469.83 673.33,470.5 672.5,470.5 C671.67,470.5 671,469.83 671,469" id="Fill-243" fill="#BCC2BC" sketch:type="MSShapeGroup"></path>
            <path d="M671,461 C671,460.17 671.67,459.5 672.5,459.5 C673.33,459.5 674,460.17 674,461 C674,461.83 673.33,462.5 672.5,462.5 C671.67,462.5 671,461.83 671,461" id="Fill-244" fill="#BCC2BC" sketch:type="MSShapeGroup"></path>
            <path d="M671,453 C671,452.17 671.67,451.5 672.5,451.5 C673.33,451.5 674,452.17 674,453 C674,453.83 673.33,454.5 672.5,454.5 C671.67,454.5 671,453.83 671,453" id="Fill-245" fill="#BCC2BC" sketch:type="MSShapeGroup"></path>
            <path d="M671,445 C671,444.17 671.67,443.5 672.5,443.5 C673.33,443.5 674,444.17 674,445 C674,445.83 673.33,446.5 672.5,446.5 C671.67,446.5 671,445.83 671,445" id="Fill-246" fill="#BCC2BC" sketch:type="MSShapeGroup"></path>
            <path d="M671,437 C671,436.17 671.67,435.5 672.5,435.5 C673.33,435.5 674,436.17 674,437 C674,437.83 673.33,438.5 672.5,438.5 C671.67,438.5 671,437.83 671,437" id="Fill-247" fill="#BCC2BC" sketch:type="MSShapeGroup"></path>
            <path d="M671,429 C671,428.17 671.67,427.5 672.5,427.5 C673.33,427.5 674,428.17 674,429 C674,429.83 673.33,430.5 672.5,430.5 C671.67,430.5 671,429.83 671,429" id="Fill-248" fill="#BCC2BC" sketch:type="MSShapeGroup"></path>
            <path d="M671,421 C671,420.17 671.67,419.5 672.5,419.5 C673.33,419.5 674,420.17 674,421 C674,421.83 673.33,422.5 672.5,422.5 C671.67,422.5 671,421.83 671,421" id="Fill-249" fill="#BCC2BC" sketch:type="MSShapeGroup"></path>
            <path d="M671,413 C671,412.17 671.67,411.5 672.5,411.5 C673.33,411.5 674,412.17 674,413 C674,413.83 673.33,414.5 672.5,414.5 C671.67,414.5 671,413.83 671,413" id="Fill-250" fill="#BCC2BC" sketch:type="MSShapeGroup"></path>
            <path d="M671,405 C671,404.17 671.67,403.5 672.5,403.5 C673.33,403.5 674,404.17 674,405 C674,405.83 673.33,406.5 672.5,406.5 C671.67,406.5 671,405.83 671,405" id="Fill-251" fill="#BCC2BC" sketch:type="MSShapeGroup"></path>
            <path d="M671,397 C671,396.17 671.67,395.5 672.5,395.5 C673.33,395.5 674,396.17 674,397 C674,397.83 673.33,398.5 672.5,398.5 C671.67,398.5 671,397.83 671,397" id="Fill-252" fill="#BCC2BC" sketch:type="MSShapeGroup"></path>
            <path d="M671,389 C671,388.17 671.67,387.5 672.5,387.5 C673.33,387.5 674,388.17 674,389 C674,389.83 673.33,390.5 672.5,390.5 C671.67,390.5 671,389.83 671,389" id="Fill-253" fill="#BCC2BC" sketch:type="MSShapeGroup"></path>
            <path d="M671,381 C671,380.17 671.67,379.5 672.5,379.5 C673.33,379.5 674,380.17 674,381 C674,381.83 673.33,382.5 672.5,382.5 C671.67,382.5 671,381.83 671,381" id="Fill-254" fill="#BCC2BC" sketch:type="MSShapeGroup"></path>
            <path d="M671,373 C671,372.17 671.67,371.5 672.5,371.5 C673.33,371.5 674,372.17 674,373 C674,373.83 673.33,374.5 672.5,374.5 C671.67,374.5 671,373.83 671,373" id="Fill-255" fill="#BCC2BC" sketch:type="MSShapeGroup"></path>
            <path d="M671,365 C671,364.17 671.67,363.5 672.5,363.5 C673.33,363.5 674,364.17 674,365 C674,365.83 673.33,366.5 672.5,366.5 C671.67,366.5 671,365.83 671,365" id="Fill-256" fill="#BCC2BC" sketch:type="MSShapeGroup"></path>
            <path d="M671,357 C671,356.17 671.67,355.5 672.5,355.5 C673.33,355.5 674,356.17 674,357 C674,357.83 673.33,358.5 672.5,358.5 C671.67,358.5 671,357.83 671,357" id="Fill-257" fill="#BCC2BC" sketch:type="MSShapeGroup"></path>
            <path d="M671,349 C671,348.17 671.67,347.5 672.5,347.5 C673.33,347.5 674,348.17 674,349 C674,349.83 673.33,350.5 672.5,350.5 C671.67,350.5 671,349.83 671,349" id="Fill-258" fill="#BCC2BC" sketch:type="MSShapeGroup"></path>
            <path d="M671,341 C671,340.17 671.67,339.5 672.5,339.5 C673.33,339.5 674,340.17 674,341 C674,341.83 673.33,342.5 672.5,342.5 C671.67,342.5 671,341.83 671,341" id="Fill-259" fill="#BCC2BC" sketch:type="MSShapeGroup"></path>
            <path d="M671,333 C671,332.17 671.67,331.5 672.5,331.5 C673.33,331.5 674,332.17 674,333 C674,333.83 673.33,334.5 672.5,334.5 C671.67,334.5 671,333.83 671,333" id="Fill-260" fill="#BCC2BC" sketch:type="MSShapeGroup"></path>
            <path d="M671,325 C671,324.17 671.67,323.5 672.5,323.5 C673.33,323.5 674,324.17 674,325 C674,325.83 673.33,326.5 672.5,326.5 C671.67,326.5 671,325.83 671,325" id="Fill-261" fill="#BCC2BC" sketch:type="MSShapeGroup"></path>
            <path d="M671,317 C671,316.17 671.67,315.5 672.5,315.5 C673.33,315.5 674,316.17 674,317 C674,317.83 673.33,318.5 672.5,318.5 C671.67,318.5 671,317.83 671,317" id="Fill-262" fill="#BCC2BC" sketch:type="MSShapeGroup"></path>
            <path d="M671,309 C671,308.17 671.67,307.5 672.5,307.5 C673.33,307.5 674,308.17 674,309 C674,309.83 673.33,310.5 672.5,310.5 C671.67,310.5 671,309.83 671,309" id="Fill-263" fill="#BCC2BC" sketch:type="MSShapeGroup"></path>
            <path d="M671,301 C671,300.17 671.67,299.5 672.5,299.5 C673.33,299.5 674,300.17 674,301 C674,301.83 673.33,302.5 672.5,302.5 C671.67,302.5 671,301.83 671,301" id="Fill-264" fill="#BCC2BC" sketch:type="MSShapeGroup"></path>
            <path d="M671,293 C671,292.17 671.67,291.5 672.5,291.5 C673.33,291.5 674,292.17 674,293 C674,293.83 673.33,294.5 672.5,294.5 C671.67,294.5 671,293.83 671,293" id="Fill-265" fill="#BCC2BC" sketch:type="MSShapeGroup"></path>
            <path d="M671,285 C671,284.17 671.67,283.5 672.5,283.5 C673.33,283.5 674,284.17 674,285 C674,285.83 673.33,286.5 672.5,286.5 C671.67,286.5 671,285.83 671,285" id="Fill-266" fill="#BCC2BC" sketch:type="MSShapeGroup"></path>
            <path d="M671,277 C671,276.17 671.67,275.5 672.5,275.5 C673.33,275.5 674,276.17 674,277 C674,277.83 673.33,278.5 672.5,278.5 C671.67,278.5 671,277.83 671,277" id="Fill-267" fill="#BCC2BC" sketch:type="MSShapeGroup"></path>
            <path d="M671,269 C671,268.17 671.67,267.5 672.5,267.5 C673.33,267.5 674,268.17 674,269 C674,269.83 673.33,270.5 672.5,270.5 C671.67,270.5 671,269.83 671,269" id="Fill-268" fill="#BCC2BC" sketch:type="MSShapeGroup"></path>
            <path d="M671,261 C671,260.17 671.67,259.5 672.5,259.5 C673.33,259.5 674,260.17 674,261 C674,261.83 673.33,262.5 672.5,262.5 C671.67,262.5 671,261.83 671,261" id="Fill-269" fill="#BCC2BC" sketch:type="MSShapeGroup"></path>
            <path d="M671,253 C671,252.17 671.67,251.5 672.5,251.5 C673.33,251.5 674,252.17 674,253 C674,253.83 673.33,254.5 672.5,254.5 C671.67,254.5 671,253.83 671,253" id="Fill-270" fill="#BCC2BC" sketch:type="MSShapeGroup"></path>
            <path d="M671,245 C671,244.17 671.67,243.5 672.5,243.5 C673.33,243.5 674,244.17 674,245 C674,245.83 673.33,246.5 672.5,246.5 C671.67,246.5 671,245.83 671,245" id="Fill-271" fill="#BCC2BC" sketch:type="MSShapeGroup"></path>
            <path d="M671,237 C671,236.17 671.67,235.5 672.5,235.5 C673.33,235.5 674,236.17 674,237 C674,237.83 673.33,238.5 672.5,238.5 C671.67,238.5 671,237.83 671,237" id="Fill-272" fill="#BCC2BC" sketch:type="MSShapeGroup"></path>
            <path d="M671,229 C671,228.17 671.67,227.5 672.5,227.5 C673.33,227.5 674,228.17 674,229 C674,229.83 673.33,230.5 672.5,230.5 C671.67,230.5 671,229.83 671,229" id="Fill-273" fill="#BCC2BC" sketch:type="MSShapeGroup"></path>
            <path d="M671,221 C671,220.17 671.67,219.5 672.5,219.5 C673.33,219.5 674,220.17 674,221 C674,221.83 673.33,222.5 672.5,222.5 C671.67,222.5 671,221.83 671,221" id="Fill-274" fill="#BCC2BC" sketch:type="MSShapeGroup"></path>
            <path d="M671,213 C671,212.17 671.67,211.5 672.5,211.5 C673.33,211.5 674,212.17 674,213 C674,213.83 673.33,214.5 672.5,214.5 C671.67,214.5 671,213.83 671,213" id="Fill-275" fill="#BCC2BC" sketch:type="MSShapeGroup"></path>
            <path d="M671,205 C671,204.17 671.67,203.5 672.5,203.5 C673.33,203.5 674,204.17 674,205 C674,205.83 673.33,206.5 672.5,206.5 C671.67,206.5 671,205.83 671,205" id="Fill-276" fill="#BCC2BC" sketch:type="MSShapeGroup"></path>
            <path d="M671,197 C671,196.17 671.67,195.5 672.5,195.5 C673.33,195.5 674,196.17 674,197 C674,197.83 673.33,198.5 672.5,198.5 C671.67,198.5 671,197.83 671,197" id="Fill-277" fill="#BCC2BC" sketch:type="MSShapeGroup"></path>
            <path d="M671,189 C671,188.17 671.67,187.5 672.5,187.5 C673.33,187.5 674,188.17 674,189 C674,189.83 673.33,190.5 672.5,190.5 C671.67,190.5 671,189.83 671,189" id="Fill-278" fill="#BCC2BC" sketch:type="MSShapeGroup"></path>
            <path d="M671,181 C671,180.17 671.67,179.5 672.5,179.5 C673.33,179.5 674,180.17 674,181 C674,181.83 673.33,182.5 672.5,182.5 C671.67,182.5 671,181.83 671,181" id="Fill-279" fill="#BCC2BC" sketch:type="MSShapeGroup"></path>
            <path d="M671,173 C671,172.17 671.67,171.5 672.5,171.5 C673.33,171.5 674,172.17 674,173 C674,173.83 673.33,174.5 672.5,174.5 C671.67,174.5 671,173.83 671,173" id="Fill-280" fill="#BCC2BC" sketch:type="MSShapeGroup"></path>
            <path d="M671,165 C671,164.17 671.67,163.5 672.5,163.5 C673.33,163.5 674,164.17 674,165 C674,165.83 673.33,166.5 672.5,166.5 C671.67,166.5 671,165.83 671,165" id="Fill-281" fill="#BCC2BC" sketch:type="MSShapeGroup"></path>
            <path d="M671,157 C671,156.17 671.67,155.5 672.5,155.5 C673.33,155.5 674,156.17 674,157 C674,157.83 673.33,158.5 672.5,158.5 C671.67,158.5 671,157.83 671,157" id="Fill-282" fill="#BCC2BC" sketch:type="MSShapeGroup"></path>
            <path d="M671,149 C671,148.17 671.67,147.5 672.5,147.5 C673.33,147.5 674,148.17 674,149 C674,149.83 673.33,150.5 672.5,150.5 C671.67,150.5 671,149.83 671,149" id="Fill-283" fill="#BCC2BC" sketch:type="MSShapeGroup"></path>
            <path d="M671,141 C671,140.17 671.67,139.5 672.5,139.5 C673.33,139.5 674,140.17 674,141 C674,141.83 673.33,142.5 672.5,142.5 C671.67,142.5 671,141.83 671,141" id="Fill-284" fill="#BCC2BC" sketch:type="MSShapeGroup"></path>
            <path d="M671,133 C671,132.17 671.67,131.5 672.5,131.5 C673.33,131.5 674,132.17 674,133 C674,133.83 673.33,134.5 672.5,134.5 C671.67,134.5 671,133.83 671,133" id="Fill-285" fill="#BCC2BC" sketch:type="MSShapeGroup"></path>
            <path d="M671,125 C671,124.17 671.67,123.5 672.5,123.5 C673.33,123.5 674,124.17 674,125 C674,125.83 673.33,126.5 672.5,126.5 C671.67,126.5 671,125.83 671,125" id="Fill-286" fill="#BCC2BC" sketch:type="MSShapeGroup"></path>
            <path d="M671,117 C671,116.17 671.67,115.5 672.5,115.5 C673.33,115.5 674,116.17 674,117 C674,117.83 673.33,118.5 672.5,118.5 C671.67,118.5 671,117.83 671,117" id="Fill-287" fill="#BCC2BC" sketch:type="MSShapeGroup"></path>
            <path d="M671,109 C671,108.17 671.67,107.5 672.5,107.5 C673.33,107.5 674,108.17 674,109 C674,109.83 673.33,110.5 672.5,110.5 C671.67,110.5 671,109.83 671,109" id="Fill-288" fill="#BCC2BC" sketch:type="MSShapeGroup"></path>
            <path d="M671,101 C671,100.17 671.67,99.5 672.5,99.5 C673.33,99.5 674,100.17 674,101 C674,101.83 673.33,102.5 672.5,102.5 C671.67,102.5 671,101.83 671,101" id="Fill-289" fill="#BCC2BC" sketch:type="MSShapeGroup"></path>
            <path d="M671,93 C671,92.17 671.67,91.5 672.5,91.5 C673.33,91.5 674,92.17 674,93 C674,93.83 673.33,94.5 672.5,94.5 C671.67,94.5 671,93.83 671,93" id="Fill-290" fill="#BCC2BC" sketch:type="MSShapeGroup"></path>
            <path d="M671,85 C671,84.17 671.67,83.5 672.5,83.5 C673.33,83.5 674,84.17 674,85 C674,85.83 673.33,86.5 672.5,86.5 C671.67,86.5 671,85.83 671,85" id="Fill-291" fill="#BCC2BC" sketch:type="MSShapeGroup"></path>
            <path d="M671,77 C671,76.17 671.67,75.5 672.5,75.5 C673.33,75.5 674,76.17 674,77 C674,77.83 673.33,78.5 672.5,78.5 C671.67,78.5 671,77.83 671,77" id="Fill-292" fill="#BCC2BC" sketch:type="MSShapeGroup"></path>
            <path d="M671,69 C671,68.17 671.67,67.5 672.5,67.5 C673.33,67.5 674,68.17 674,69 C674,69.83 673.33,70.5 672.5,70.5 C671.67,70.5 671,69.83 671,69" id="Fill-293" fill="#BCC2BC" sketch:type="MSShapeGroup"></path>
            <path d="M671,61 C671,60.17 671.67,59.5 672.5,59.5 C673.33,59.5 674,60.17 674,61 C674,61.83 673.33,62.5 672.5,62.5 C671.67,62.5 671,61.83 671,61" id="Fill-294" fill="#BCC2BC" sketch:type="MSShapeGroup"></path>
            <path d="M671,53 C671,52.17 671.67,51.5 672.5,51.5 C673.33,51.5 674,52.17 674,53 C674,53.83 673.33,54.5 672.5,54.5 C671.67,54.5 671,53.83 671,53" id="Fill-295" fill="#BCC2BC" sketch:type="MSShapeGroup"></path>
            <path d="M671,45 C671,44.17 671.67,43.5 672.5,43.5 C673.33,43.5 674,44.17 674,45 C674,45.83 673.33,46.5 672.5,46.5 C671.67,46.5 671,45.83 671,45" id="Fill-296" fill="#BCC2BC" sketch:type="MSShapeGroup"></path>
            <path d="M671,37 C671,36.17 671.67,35.5 672.5,35.5 C673.33,35.5 674,36.17 674,37 C674,37.83 673.33,38.5 672.5,38.5 C671.67,38.5 671,37.83 671,37" id="Fill-297" fill="#BCC2BC" sketch:type="MSShapeGroup"></path>
            <path d="M671,29 C671,28.17 671.67,27.5 672.5,27.5 C673.33,27.5 674,28.17 674,29 C674,29.83 673.33,30.5 672.5,30.5 C671.67,30.5 671,29.83 671,29" id="Fill-298" fill="#BCC2BC" sketch:type="MSShapeGroup"></path>
            <path d="M671,21 C671,20.17 671.67,19.5 672.5,19.5 C673.33,19.5 674,20.17 674,21 C674,21.83 673.33,22.5 672.5,22.5 C671.67,22.5 671,21.83 671,21" id="Fill-299" fill="#BCC2BC" sketch:type="MSShapeGroup"></path>
            <path d="M671,13 C671,12.17 671.67,11.5 672.5,11.5 C673.33,11.5 674,12.17 674,13 C674,13.83 673.33,14.5 672.5,14.5 C671.67,14.5 671,13.83 671,13" id="Fill-300" fill="#BCC2BC" sketch:type="MSShapeGroup"></path>
            <path d="M672.5,544.5 C672.109,544.5 671.72,544.34 671.44,544.06 C671.16,543.78 671,543.39 671,543 C671,542.609 671.16,542.22 671.44,541.94 C672,541.38 673,541.38 673.56,541.94 C673.84,542.22 674,542.609 674,543 C674,543.39 673.84,543.78 673.56,544.06 C673.28,544.34 672.89,544.5 672.5,544.5" id="Fill-301" fill="#BCC2BC" sketch:type="MSShapeGroup"></path>
            <path d="M469.867,1024.67 L426.247,786 L513.49,786 L469.867,1024.67" id="Fill-302" fill="#707270" sketch:type="MSShapeGroup"></path>
            <path d="M469,761 C469,760.17 469.67,759.5 470.5,759.5 C471.33,759.5 472,760.17 472,761 C472,761.83 471.33,762.5 470.5,762.5 C469.67,762.5 469,761.83 469,761" id="Fill-303" fill="#707270" sketch:type="MSShapeGroup"></path>
            <path d="M469,752 C469,751.17 469.67,750.5 470.5,750.5 C471.33,750.5 472,751.17 472,752 C472,752.83 471.33,753.5 470.5,753.5 C469.67,753.5 469,752.83 469,752" id="Fill-304" fill="#707270" sketch:type="MSShapeGroup"></path>
            <path d="M469,743 C469,742.17 469.67,741.5 470.5,741.5 C471.33,741.5 472,742.17 472,743 C472,743.83 471.33,744.5 470.5,744.5 C469.67,744.5 469,743.83 469,743" id="Fill-305" fill="#707270" sketch:type="MSShapeGroup"></path>
            <path d="M469,734 C469,733.17 469.67,732.5 470.5,732.5 C471.33,732.5 472,733.17 472,734 C472,734.83 471.33,735.5 470.5,735.5 C469.67,735.5 469,734.83 469,734" id="Fill-306" fill="#707270" sketch:type="MSShapeGroup"></path>
            <path d="M469,725 C469,724.17 469.67,723.5 470.5,723.5 C471.33,723.5 472,724.17 472,725 C472,725.83 471.33,726.5 470.5,726.5 C469.67,726.5 469,725.83 469,725" id="Fill-307" fill="#707270" sketch:type="MSShapeGroup"></path>
            <path d="M469,716 C469,715.17 469.67,714.5 470.5,714.5 C471.33,714.5 472,715.17 472,716 C472,716.83 471.33,717.5 470.5,717.5 C469.67,717.5 469,716.83 469,716" id="Fill-308" fill="#707270" sketch:type="MSShapeGroup"></path>
            <path d="M469,707 C469,706.17 469.67,705.5 470.5,705.5 C471.33,705.5 472,706.17 472,707 C472,707.83 471.33,708.5 470.5,708.5 C469.67,708.5 469,707.83 469,707" id="Fill-309" fill="#707270" sketch:type="MSShapeGroup"></path>
            <path d="M469,698 C469,697.17 469.67,696.5 470.5,696.5 C471.33,696.5 472,697.17 472,698 C472,698.83 471.33,699.5 470.5,699.5 C469.67,699.5 469,698.83 469,698" id="Fill-310" fill="#707270" sketch:type="MSShapeGroup"></path>
            <path d="M469,689 C469,688.17 469.67,687.5 470.5,687.5 C471.33,687.5 472,688.17 472,689 C472,689.83 471.33,690.5 470.5,690.5 C469.67,690.5 469,689.83 469,689" id="Fill-311" fill="#707270" sketch:type="MSShapeGroup"></path>
            <path d="M469,680 C469,679.17 469.67,678.5 470.5,678.5 C471.33,678.5 472,679.17 472,680 C472,680.83 471.33,681.5 470.5,681.5 C469.67,681.5 469,680.83 469,680" id="Fill-312" fill="#707270" sketch:type="MSShapeGroup"></path>
            <path d="M469,671 C469,670.17 469.67,669.5 470.5,669.5 C471.33,669.5 472,670.17 472,671 C472,671.83 471.33,672.5 470.5,672.5 C469.67,672.5 469,671.83 469,671" id="Fill-313" fill="#707270" sketch:type="MSShapeGroup"></path>
            <path d="M470.5,771.5 C470.1,771.5 469.72,771.34 469.44,771.06 C469.16,770.78 469,770.399 469,770 C469,769.6 469.16,769.22 469.44,768.94 C470,768.38 471,768.38 471.56,768.94 C471.84,769.22 472,769.6 472,770 C472,770.39 471.84,770.78 471.56,771.06 C471.28,771.34 470.89,771.5 470.5,771.5" id="Fill-314" fill="#707270" sketch:type="MSShapeGroup"></path>
            <path d="M716.089,554 L628.853,554 L649.944,670 L694.998,670 L716.089,554" id="Fill-315" fill="#BCC2BC" sketch:type="MSShapeGroup"></path>
            <path d="M694.998,670 L649.944,670 L672.471,793.898 L694.998,670" id="Fill-316" fill="#707270" sketch:type="MSShapeGroup"></path>
            <path d="M294.975,555 L207.738,555 L228.991,670 L273.87,670 L294.975,555" id="Fill-317" fill="#BCC2BC" sketch:type="MSShapeGroup"></path>
            <path d="M273.87,670 L228.991,670 L251.508,791.842 L273.87,670" id="Fill-318" fill="#BCC2BC" sketch:type="MSShapeGroup"></path>
        </g>
    </g>
</svg>