<svg width="372" height="50" viewBox="0 0 372 50" fill="none" xmlns="http://www.w3.org/2000/svg">
<path d="M19.2602 33.7601C20.9002 33.7601 22.6402 33.5801 24.4802 33.2201C26.3602 32.8601 28.0402 32.3801 29.5202 31.7801V38.2001C27.3202 39.0801 25.3402 39.6801 23.5802 40.0001C21.8602 40.3601 20.0602 40.5401 18.1802 40.5401C12.2202 40.5401 8.06016 39.0601 5.70016 36.1001C3.34016 33.1001 2.16016 28.1001 2.16016 21.1001C2.16016 14.4201 3.56016 9.5401 6.36016 6.4601C9.16016 3.3401 13.6602 1.7801 19.8602 1.7801C21.7002 1.7801 23.3402 1.8201 24.7802 1.9001C26.2202 1.9801 27.5202 2.1201 28.6802 2.3201V8.6201C27.1602 8.5001 25.6802 8.4201 24.2402 8.3801C22.8402 8.3001 21.3802 8.2601 19.8602 8.2601C15.8202 8.2601 13.0802 9.2001 11.6402 11.0801C10.2402 12.9601 9.54016 16.3001 9.54016 21.1001C9.54016 25.9001 10.1802 29.2201 11.4602 31.0601C12.7802 32.8601 15.3802 33.7601 19.2602 33.7601ZM41.0218 0.100098V40.0001H34.0618V0.100098H41.0218ZM57.2585 40.5401C53.9385 40.5401 51.4585 39.7201 49.8185 38.0801C48.1785 36.4001 47.3585 33.9001 47.3585 30.5801V10.3601H54.3185V29.6801C54.3185 31.2001 54.7185 32.3001 55.5185 32.9801C56.3185 33.6601 57.6185 34.0001 59.4185 34.0001C60.5385 34.0001 61.6785 33.8801 62.8385 33.6401C63.9985 33.4001 65.0785 33.0801 66.0785 32.6801V10.3601H73.0385V40.0001H66.6185L66.3785 37.9601H66.1985C64.5585 38.8001 62.9785 39.4401 61.4585 39.8801C59.9785 40.3201 58.5785 40.5401 57.2585 40.5401ZM98.1878 33.5201V39.4601C97.5078 39.7401 96.5478 39.9801 95.3078 40.1801C94.1078 40.4201 93.0078 40.5401 92.0078 40.5401C88.2078 40.5401 85.4878 39.7201 83.8478 38.0801C82.2078 36.4001 81.3878 33.6201 81.3878 29.7401V16.1801H77.4278V10.3601H81.5678L82.5278 3.2801H88.3478V10.3601H97.8278V16.1801H88.3478V29.5001C88.3478 31.2601 88.7278 32.4601 89.4878 33.1001C90.2478 33.7401 91.6078 34.0601 93.5678 34.0601C94.2478 34.0601 95.0478 34.0201 95.9678 33.9401C96.8878 33.8201 97.6278 33.6801 98.1878 33.5201ZM123.273 32.5001V38.3201C122.233 38.9201 120.673 39.4401 118.593 39.8801C116.553 40.3201 114.433 40.5401 112.233 40.5401C107.993 40.5401 105.013 39.4001 103.293 37.1201C101.573 34.8401 100.713 30.8401 100.713 25.1201C100.713 19.4801 101.813 15.5201 104.013 13.2401C106.253 10.9201 110.093 9.7601 115.533 9.7601C116.853 9.7601 118.033 9.8001 119.073 9.8801C120.153 9.9201 121.293 10.0201 122.493 10.1801V16.3601C120.933 16.2401 119.573 16.1601 118.413 16.1201C117.253 16.0401 116.293 16.0001 115.533 16.0001C112.253 16.0001 110.113 16.5801 109.113 17.7401C108.153 18.9001 107.673 21.3601 107.673 25.1201C107.673 28.7601 108.053 31.1601 108.813 32.3201C109.613 33.4801 111.253 34.0601 113.733 34.0601C115.373 34.0601 117.053 33.9201 118.773 33.6401C120.533 33.3201 122.033 32.9401 123.273 32.5001ZM134.889 40.0001H127.929V0.100098H134.889V12.5801C136.569 11.6601 138.249 10.9601 139.929 10.4801C141.609 10.0001 143.229 9.7601 144.789 9.7601C148.109 9.7601 150.589 10.5801 152.229 12.2201C153.909 13.8201 154.749 16.2401 154.749 19.4801V40.0001H147.789V20.3801C147.789 18.8601 147.369 17.7601 146.529 17.0801C145.729 16.3601 144.429 16.0001 142.629 16.0001C141.389 16.0001 140.089 16.1401 138.729 16.4201C137.369 16.7001 136.089 17.0801 134.889 17.5601V40.0001ZM199.202 29.0801C199.202 32.9201 198.122 35.7001 195.962 37.4201C193.802 39.1401 190.382 40.0001 185.702 40.0001H171.002V2.3801H185.702C189.942 2.3801 192.942 3.1001 194.702 4.5401C196.502 5.9801 197.402 8.4401 197.402 11.9201C197.402 14.2801 197.042 16.0801 196.322 17.3201C195.602 18.5601 194.282 19.4601 192.362 20.0201C194.642 20.4201 196.342 21.3801 197.462 22.9001C198.622 24.3801 199.202 26.4401 199.202 29.0801ZM190.742 12.9401C190.742 11.2201 190.362 10.0401 189.602 9.4001C188.882 8.7201 187.582 8.3801 185.702 8.3801H178.202V18.1001H185.702C187.502 18.1001 188.782 17.7001 189.542 16.9001C190.342 16.1001 190.742 14.7801 190.742 12.9401ZM192.242 28.6001C192.242 26.7601 191.742 25.4801 190.742 24.7601C189.782 24.0401 188.102 23.6801 185.702 23.6801H178.202V33.7601H185.702C188.102 33.7601 189.782 33.3801 190.742 32.6201C191.742 31.8601 192.242 30.5201 192.242 28.6001ZM269.417 10.3601H277.037L268.937 40.0001H260.777L255.497 19.9601L250.757 40.0001H242.717L234.617 10.3601H242.237L246.857 33.5801L252.377 10.3601H259.037L264.797 33.5801L269.417 10.3601ZM287.87 0.100098V40.0001H280.91V0.100098H287.87ZM301.527 6.1601H294.147V0.100098H301.527V6.1601ZM301.347 40.0001H294.387V10.3601H301.347V40.0001ZM314.823 40.0001H307.863V10.3601H313.863L314.163 13.3601H314.343C315.743 12.1201 317.243 11.2201 318.843 10.6601C320.483 10.0601 322.403 9.7601 324.603 9.7601C327.883 9.7601 330.383 10.5801 332.103 12.2201C333.823 13.8601 334.683 16.2801 334.683 19.4801V40.0001H327.723V20.3801C327.723 18.9401 327.243 17.8601 326.283 17.1401C325.363 16.3801 323.983 16.0001 322.143 16.0001C320.823 16.0001 319.543 16.1801 318.303 16.5401C317.063 16.8601 315.903 17.3601 314.823 18.0401V40.0001ZM353.807 49.7201C351.727 49.7201 349.747 49.5801 347.867 49.3001C346.027 49.0601 344.547 48.7201 343.427 48.2801V42.2801C344.347 42.6001 345.727 42.8601 347.567 43.0601C349.447 43.3001 351.307 43.4201 353.147 43.4201C355.707 43.4201 357.467 42.9601 358.427 42.0401C359.427 41.1201 359.947 39.4801 359.987 37.1201V35.4401C358.507 36.2401 356.967 36.8601 355.367 37.3001C353.767 37.7401 352.187 37.9601 350.627 37.9601C346.747 37.9601 343.987 36.8801 342.347 34.7201C340.707 32.5601 339.887 28.9401 339.887 23.8601C339.887 18.7801 340.987 15.1601 343.187 13.0001C345.427 10.8401 349.187 9.7601 354.467 9.7601C356.507 9.7601 358.747 9.8801 361.187 10.1201C363.667 10.3601 365.587 10.6201 366.947 10.9001V35.0201C366.947 40.4601 365.967 44.2601 364.007 46.4201C362.047 48.6201 358.647 49.7201 353.807 49.7201ZM354.467 16.0001C351.227 16.0001 349.147 16.5001 348.227 17.5001C347.307 18.4601 346.847 20.5801 346.847 23.8601C346.847 26.9001 347.227 28.9401 347.987 29.9801C348.787 30.9801 350.447 31.4801 352.967 31.4801C354.047 31.4801 355.187 31.3601 356.387 31.1201C357.627 30.8401 358.827 30.4801 359.987 30.0401V16.5401C359.147 16.3801 358.247 16.2601 357.287 16.1801C356.367 16.0601 355.427 16.0001 354.467 16.0001Z" fill="black"/>
<path fill-rule="evenodd" clip-rule="evenodd" d="M218.333 40C226.618 40 233.333 33.2843 233.333 25C233.333 16.7157 226.618 10 218.333 10C210.048 10 203.333 16.7157 203.333 25C203.333 33.2843 210.048 40 218.333 40ZM210.533 21.2C211.638 21.2 212.533 20.3045 212.533 19.2C212.533 18.0955 211.638 17.2 210.533 17.2C209.428 17.2 208.533 18.0955 208.533 19.2C208.533 20.3045 209.428 21.2 210.533 21.2ZM219.333 23.2C219.333 24.3045 218.438 25.2 217.333 25.2C216.228 25.2 215.333 24.3045 215.333 23.2C215.333 22.0955 216.228 21.2 217.333 21.2C218.438 21.2 219.333 22.0955 219.333 23.2ZM215.333 18C216.438 18 217.333 17.1045 217.333 16C217.333 14.8954 216.438 14 215.333 14C214.228 14 213.333 14.8954 213.333 16C213.333 17.1045 214.228 18 215.333 18Z" fill="black"/>
</svg>
